<svg xmlns="http://www.w3.org/2000/svg" width="24" height="24" viewBox="0 0 24 24">
  <g id="G_D_Mines_icon" data-name="G &amp; D Mines icon" transform="translate(-1113.891 -1175.438)">
    <rect id="Rectangle_21441" data-name="Rectangle 21441" width="24" height="24" transform="translate(1113.891 1175.438)" fill="none"/>
    <g id="Group_51536" data-name="Group 51536">
      <path id="Path_42083" data-name="Path 42083" d="M1125.9,1185.6l1.829,1.83c-.03.031-.072.079-.118.124l-9.237,9.238c-.287.286-.494.288-.776.006q-.544-.543-1.087-1.087a.44.44,0,0,1-.009-.718q4.666-4.67,9.337-9.338C1125.856,1185.637,1125.877,1185.62,1125.9,1185.6Z"/>
      <path id="Path_42084" data-name="Path 42084" d="M1132.486,1183.753a1.536,1.536,0,0,1-.188.325q-1.5,1.515-3.016,3.018a.414.414,0,0,1-.643,0q-1.2-1.2-2.4-2.4a.419.419,0,0,1,0-.658q1.5-1.5,3-3a.424.424,0,0,1,.659,0q1.2,1.189,2.386,2.39A1.647,1.647,0,0,1,1132.486,1183.753Z"/>
      <path id="Path_42085" data-name="Path 42085" d="M1128.306,1180.737l-1.786,1.787c-.044-.04-.093-.082-.139-.127q-1.872-1.874-3.746-3.744a.523.523,0,0,1-.2-.46.415.415,0,0,1,.5-.355,8.871,8.871,0,0,1,1.2.324,13.265,13.265,0,0,1,4.111,2.512A.45.45,0,0,1,1128.306,1180.737Z"/>
      <path id="Path_42086" data-name="Path 42086" d="M1130.824,1186.829l1.8-1.8c.269.341.557.686.823,1.048a11.51,11.51,0,0,1,1.941,3.827,3.992,3.992,0,0,1,.1.493.436.436,0,0,1-.746.369q-1.959-1.956-3.915-3.916C1130.824,1186.837,1130.821,1186.823,1130.824,1186.829Z"/>
    </g>
  </g>
</svg>
