<svg id="Gold_Diamonds_icon" data-name="Gold &amp; Diamonds icon" xmlns="http://www.w3.org/2000/svg" width="24" height="24" viewBox="0 0 24 24">
  <path id="Path_38318" data-name="Path 38318" d="M0,0H24V24H0Z" fill="none"/>
  <path id="diamond" d="M2.152,6.5l6.326,6.752L5.432,6.5H2.152ZM10.4,14.338,13.942,6.5H6.854ZM5.463,5.2,7.534,1.3H4.874L1.949,5.2Zm6.854,8.052L18.643,6.5h-3.28ZM6.935,5.2H13.86L11.789,1.3H9.007Zm8.4,0h3.513L15.921,1.3h-2.66ZM16.765.264l3.9,5.2a.645.645,0,0,1-.04.832l-9.748,10.4a.662.662,0,0,1-.954,0L.172,6.3a.645.645,0,0,1-.04-.832l3.9-5.2A.592.592,0,0,1,4.549,0h11.7a.592.592,0,0,1,.518.264Z" transform="translate(1.602 3.552)" stroke="#000" stroke-width="0.3"/>
</svg>
