<svg xmlns="http://www.w3.org/2000/svg" width="24" height="24" viewBox="0 0 24 24">
  <g id="Meta_Estate_icon" data-name="Meta Estate icon" transform="translate(-1013.25 -1175.438)">
    <rect id="Rectangle_21441" data-name="Rectangle 21441" width="24" height="24" transform="translate(1013.25 1175.438)" fill="none"/>
    <path id="Path_38317" data-name="Path 38317" d="M1029.02,1190.44a.6.6,0,0,1-.06.11c.76.18,1.52.37,2.29.55v-.66Zm1.58-4v.61a2.468,2.468,0,0,1-.4,1.39h1.05v-2Zm-1.58,4a.6.6,0,0,1-.06.11c.76.18,1.52.37,2.29.55v-.66Zm1.58-4v.61a2.468,2.468,0,0,1-.4,1.39h1.05v-2Zm-15.35-8v18h.56a1.917,1.917,0,0,1-.03-1.11l.06-.23c.18-.74.36-1.47.55-2.2a2.33,2.33,0,0,1,1.77-1.74c.86-.2,1.72-.41,2.58-.62h.01c-.02-.03-.04-.07-.06-.1h-3.44v-2h2.27a2.3,2.3,0,0,1-.35-.78,2.586,2.586,0,0,1-.06-.58v-.64h-1.86v-2h2.02a2.221,2.221,0,0,1,.65-.96l.24-.65c.06-.16.09-.24.13-.33l.03-.06h-3.07v-2h4.88a4.026,4.026,0,0,1,1.33-.5,4.45,4.45,0,0,1,.86-.06l.34-.01c.19,0,.39,0,.59.01v-1.44Zm15.35,8v.61a2.468,2.468,0,0,1-.4,1.39h1.05v-2Zm-1.58,4a.6.6,0,0,1-.06.11c.76.18,1.52.37,2.29.55v-.66Zm1.58-4v.61a2.468,2.468,0,0,1-.4,1.39h1.05v-2Zm-1.58,4a.6.6,0,0,1-.06.11c.76.18,1.52.37,2.29.55v-.66Zm1.58-4v.61a2.468,2.468,0,0,1-.4,1.39h1.05v-2Zm-1.58,4a.6.6,0,0,1-.06.11c.76.18,1.52.37,2.29.55v-.66Zm.38-8c.02.04.04.09.06.14l.48,1.04a2.151,2.151,0,0,1,.51.82h2.8v8.22c.03.09.06.2.09.3l.6,2.4a1.737,1.737,0,0,1-.04,1.08h1.35v-14Zm-.38,8a.6.6,0,0,1-.06.11c.76.18,1.52.37,2.29.55v-.66Zm1.58-4v.61a2.468,2.468,0,0,1-.4,1.39h1.05v-2Zm-1.58,4a.6.6,0,0,1-.06.11c.76.18,1.52.37,2.29.55v-.66Zm1.58-4v.61a2.468,2.468,0,0,1-.4,1.39h1.05v-2Zm-1.58,4a.6.6,0,0,1-.06.11c.76.18,1.52.37,2.29.55v-.66Zm1.58-4v.61a2.468,2.468,0,0,1-.4,1.39h1.05v-2Zm0,0v.61a2.468,2.468,0,0,1-.4,1.39h1.05v-2Zm-1.58,4a.6.6,0,0,1-.06.11c.76.18,1.52.37,2.29.55v-.66Zm0,0a.6.6,0,0,1-.06.11c.76.18,1.52.37,2.29.55v-.66Zm1.58-4v.61a2.468,2.468,0,0,1-.4,1.39h1.05v-2Z" fill="#090a0a"/>
    <g id="Group_51534" data-name="Group 51534">
      <path id="Path_42076" data-name="Path 42076" d="M1024.857,1196.437h-7.431c-.587,0-.816-.292-.674-.866.2-.808.4-1.617.611-2.423a1.31,1.31,0,0,1,1.028-1.014q1.293-.309,2.584-.626a.647.647,0,0,1,.708.239,4.1,4.1,0,0,0,2.43,1.46A3.983,3.983,0,0,0,1027.8,1192c.093-.092.18-.19.264-.289a.584.584,0,0,1,.624-.2c.879.21,1.758.42,2.636.636a1.33,1.33,0,0,1,1.041,1.045c.2.8.4,1.6.6,2.408.133.534-.1.833-.659.833Z"/>
      <path id="Path_42077" data-name="Path 42077" d="M1024.857,1183.911c1.114,0,2.228,0,3.342,0a1.322,1.322,0,0,1,1.366,1.037,1.8,1.8,0,0,1,.035.388q0,.853,0,1.707a1.34,1.34,0,0,1-1.437,1.428q-3.334,0-6.668,0a1.334,1.334,0,0,1-1.349-1.04,1.6,1.6,0,0,1-.034-.353c0-.592-.006-1.185,0-1.778a1.318,1.318,0,0,1,1.031-1.352,1.969,1.969,0,0,1,.441-.036Q1023.22,1183.909,1024.857,1183.911Zm-1.894,1.717c-.13,0-.26,0-.39,0a.567.567,0,0,0-.561.53.555.555,0,0,0,.5.584,6.8,6.8,0,0,0,.9,0,.536.536,0,0,0,.485-.591.556.556,0,0,0-.547-.521C1023.223,1185.626,1023.093,1185.629,1022.963,1185.628Z"/>
      <path id="Path_42078" data-name="Path 42078" d="M1028.512,1189.215a3.839,3.839,0,0,1-7.311,0Z"/>
      <path id="Path_42079" data-name="Path 42079" d="M1028.629,1183.177H1021.1c.034-.092.059-.175.095-.252a3.3,3.3,0,0,1,2.456-2,3.49,3.49,0,0,1,.671-.049c.5,0,1.01-.023,1.509.025a3.179,3.179,0,0,1,2.544,1.738C1028.468,1182.8,1028.536,1182.979,1028.629,1183.177Z"/>
    </g>
  </g>
</svg>
