<svg xmlns="http://www.w3.org/2000/svg" xmlns:xlink="http://www.w3.org/1999/xlink" width="249.689" height="120.729" viewBox="0 0 249.689 120.729">
  <defs>
    <clipPath id="clip-path">
      <rect id="Rectangle_20691" data-name="Rectangle 20691" width="137.951" height="85.75" fill="none"/>
    </clipPath>
  </defs>
  <g id="Peaceful_People_Logo" data-name="Peaceful People Logo" transform="translate(0)">
    <rect id="Rectangle_17476" data-name="Rectangle 17476" width="249.689" height="120.729" rx="9" transform="translate(0)" fill="#060707"/>
    <g id="Group_46835" data-name="Group 46835" transform="translate(55.869 17.489)">
      <g id="Group_46834" data-name="Group 46834" clip-path="url(#clip-path)">
        <path id="Path_37416" data-name="Path 37416" d="M541.055,732.888c-.331-.647-.7-1.274-1.087-1.963.143-.112.274-.207.4-.313a1.789,1.789,0,0,0,.49-1.9,1.348,1.348,0,0,0-1.449-.935c-.474-.01-.949.009-1.423,0-.335-.009-.524.117-.524.466,0,1.605,0,3.211,0,4.816,0,.259.1.519.408.429a.61.61,0,0,0,.339-.436c.049-.451,0-.913.036-1.366.016-.189.128-.487.256-.522a.746.746,0,0,1,.634.156,6.316,6.316,0,0,1,.7,1.033,4.5,4.5,0,0,0,.514.895c.165.164.5.157.759.227a1.634,1.634,0,0,0-.055-.586m-2.152-2.477c-.65,0-.673-.036-.673-.982,0-.927.04-.979.745-.976s1.142.334,1.151.884c.012.665-.459,1.078-1.224,1.075" transform="translate(-478.54 -647.993)" fill="#faf6f5"/>
        <path id="Path_37417" data-name="Path 37417" d="M357.448,14.048a29.614,29.614,0,0,0-2.3,17.753,29.479,29.479,0,0,0,9.836,17.51,30.026,30.026,0,0,0,16.4,7.318,3.29,3.29,0,0,0,.595-.03.961.961,0,0,0-.361-.411,28.754,28.754,0,0,1-6.7-6.006c-3.422-4.41-4.885-9.329-3.45-14.832.54-2.071,1.515-4.027,2.262-6.046a34.187,34.187,0,0,0,1.29-3.832,4.134,4.134,0,0,0-.886-3.754c-.2-.243-.379-.512-.608-.825.288-.133.476-.24.678-.309a10.382,10.382,0,0,1,4.907-.484,6.213,6.213,0,0,1,3.081,1.327,6.56,6.56,0,0,1,2.133,3.433c.227.8.392,1.615.59,2.446.083-.045.144-.058.171-.1a7.464,7.464,0,0,0,1.5-5.348,9.1,9.1,0,0,0-3.706-6.048c-1.924-1.539-3.922-2.988-5.81-4.568a16.472,16.472,0,0,1-5.393-7.708c-.366-1.164-.632-2.359-.944-3.541h-.11a30.234,30.234,0,0,0-13.185,14.049" transform="translate(-315.802 0.001)" fill="#ff8f05"/>
        <path id="Path_37418" data-name="Path 37418" d="M365.549,594.306c.931-.016,1.863,0,2.795,0,1.26,0,2.521-.007,3.781,0,.443,0,.663-.151.675-.636.031-1.269.048-1.269-1.238-1.27-1.206,0-2.411.006-3.617-.007-.764-.009-.856-.112-.866-.853,0-.329-.006-.658,0-.986.012-.652.09-.737.728-.742,1.023-.007,2.046,0,3.069,0,1.253,0,1.273-.039,1.22-1.3-.02-.466-.213-.653-.669-.648-1,.011-2.009,0-3.014,0-1.375,0-1.358,0-1.342-1.352.006-.512.193-.726.712-.718,1.169.019,2.338,0,3.507,0,1.2,0,1.182,0,1.187-1.207,0-.52-.182-.712-.7-.708-2.064.017-4.128,0-6.193.008-.67,0-.732.071-.734.773,0,1.48,0,2.959,0,4.439,0,1.5.015,3-.008,4.494-.008.525.2.723.709.714" transform="translate(-324.845 -519.871)" fill="#faf6f5"/>
        <path id="Path_37419" data-name="Path 37419" d="M457.56,589.968c1.061,0,1.1-.041,1.071-1.118,0-.037,0-.073,0-.109.025-.463-.2-.663-.657-.656-.8.012-1.606.01-2.409,0-1.655-.016-1.531.21-1.534-1.583,0-.483.188-.7.683-.689,1.113.015,2.226,0,3.339,0,1.2,0,1.178,0,1.179-1.216,0-.534-.214-.7-.718-.7-1.989.015-3.978,0-5.967.008-.675,0-.731.065-.734.771,0,1.478,0,2.956,0,4.434h0c0,1.259-.008,2.518,0,3.777.012,1.507-.214,1.44,1.454,1.43.666,0,.756-.094.763-.764.01-.967.016-1.935,0-2.9-.008-.49.2-.7.686-.689.949.012,1.9,0,2.847,0" transform="translate(-402.277 -519.895)" fill="#faf6f5"/>
        <path id="Path_37420" data-name="Path 37420" d="M486.963,725.878a2.387,2.387,0,0,0-2.268,1.428,4.4,4.4,0,0,0-.052,3.158,2.2,2.2,0,0,0,2.1,1.561,2.122,2.122,0,0,0,2.217-1.292,11.266,11.266,0,0,0,.433-1.579c-.075-.57-.1-.974-.185-1.362a2.407,2.407,0,0,0-2.248-1.915m1.3,4.419A1.418,1.418,0,0,1,487,731.353a1.339,1.339,0,0,1-1.409-.831,3.4,3.4,0,0,1,.02-3.153,1.318,1.318,0,0,1,1.316-.806,1.447,1.447,0,0,1,1.309,1.006,9.089,9.089,0,0,1,.306,1.375,11.114,11.114,0,0,1-.278,1.353" transform="translate(-431.276 -646.301)" fill="#faf6f5"/>
        <path id="Path_37421" data-name="Path 37421" d="M627.515,583.894c-.53-.007-.7.212-.7.719.018,1.479.006,2.958.006,4.437h0c0,1.424,0,2.848,0,4.273,0,.971.025.994.974.995q2.6,0,5.2,0c1.24,0,1.24-.014,1.2-1.258-.014-.462-.189-.653-.658-.648-1.223.014-2.447,0-3.67-.005-.748,0-.8-.049-.8-.815,0-2.063.005-4.127,0-6.19-.007-1.646.206-1.483-1.551-1.506" transform="translate(-558.103 -519.885)" fill="#faf6f5"/>
        <path id="Path_37422" data-name="Path 37422" d="M540.206,590.907c.014-1,0-2.009,0-3.013q0-1.342,0-2.685c0-1.321,0-1.321-1.3-1.316-.9,0-.92.018-.921.916,0,1.881.021,3.762-.016,5.643a1.959,1.959,0,0,1-.918,1.974,1.857,1.857,0,0,1-2.876-1.737c0-.109,0-.219,0-.329,0-1.918-.015-3.835-.006-5.752,0-.5-.177-.754-.707-.716a9.061,9.061,0,0,1-.986,0c-.43-.017-.633.15-.63.606.012,2.118-.038,4.238.017,6.355a3.415,3.415,0,0,0,3.479,3.666,9.173,9.173,0,0,0,1.47-.007,3.4,3.4,0,0,0,3.4-3.608" transform="translate(-473.531 -519.881)" fill="#faf6f5"/>
        <path id="Path_37423" data-name="Path 37423" d="M679.855,728.49a1.059,1.059,0,0,0-.023-.432c-.066-.135-.231-.326-.332-.314a.573.573,0,0,0-.4.308,1.936,1.936,0,0,0-.035.65q0,1.473,0,2.947l-.132.036c-.085-.114-.177-.224-.255-.343-.686-1.055-1.377-2.107-2.05-3.172-.2-.324-.465-.6-.828-.423a.913.913,0,0,0-.3.7q-.033,2.244.019,4.489a.624.624,0,0,0,.336.479c.351.086.4-.211.405-.485,0-.967,0-1.935.01-2.9,0-.2.024-.408.047-.76.191.267.29.394.377.528.67,1.044,1.344,2.085,2,3.137.208.333.43.607.868.493s.285-.5.288-.778c.017-1.387.008-2.774.007-4.161" transform="translate(-601.436 -647.922)" fill="#faf6f5"/>
        <path id="Path_37424" data-name="Path 37424" d="M581.617,729.078a12.3,12.3,0,0,0-1.583-.012c-.086,0-.227.193-.226.3a.44.44,0,0,0,.23.307,1.1,1.1,0,0,0,.431.043c.286.008.6.021.592.4-.009.41.228.909-.264,1.2a1.621,1.621,0,0,1-2.054-.506,3.725,3.725,0,0,1,.012-3.51,1.44,1.44,0,0,1,2.3-.127,2.3,2.3,0,0,0,.686.34,1.062,1.062,0,0,0-.492-1.164,2.489,2.489,0,0,0-3.169.513,3.76,3.76,0,0,0-.569,2.56c.031,2.515,2.05,3.184,3.982,2.4a.727.727,0,0,0,.363-.52,14.758,14.758,0,0,0,.005-1.805c-.007-.147-.147-.4-.241-.411" transform="translate(-514.197 -646.395)" fill="#faf6f5"/>
        <path id="Path_37425" data-name="Path 37425" d="M343.677,728.288c-.085.221-.181.438-.27.658q-.686,1.692-1.371,3.383l-.16,0c-.079-.178-.168-.353-.237-.535-.429-1.124-.852-2.251-1.282-3.375-.221-.578-.344-.629-.981-.4a4.931,4.931,0,0,0,.134.508q.856,2.279,1.721,4.554c.113.3.23.555.638.556s.524-.269.642-.558q.941-2.3,1.873-4.612a4.285,4.285,0,0,0,.136-.494c-.443-.176-.7-.064-.843.315" transform="translate(-302.173 -648.098)" fill="#faf6f5"/>
        <path id="Path_37426" data-name="Path 37426" d="M282.613,730.968a1.409,1.409,0,0,1-2.307-.086,3.617,3.617,0,0,1,.073-3.642,1.392,1.392,0,0,1,2.138-.056c.194.262.425.416.67.229.092-.071.012-.46-.085-.657a1.19,1.19,0,0,0-.472-.44,2.491,2.491,0,0,0-2.67.282,2.936,2.936,0,0,0-.917,2.562c0,.182-.01.4,0,.62a2.523,2.523,0,0,0,2.265,2.414,1.835,1.835,0,0,0,1.9-.891c.057-.148-.025-.349-.042-.525-.19.06-.45.061-.558.19" transform="translate(-248.446 -646.458)" fill="#faf6f5"/>
        <path id="Path_37427" data-name="Path 37427" d="M175.6,585.128c-.475-1.322-.284-1.183-1.685-1.195h-.329c-.94,0-.934,0-1.243.878-.433,1.222-.878,2.44-1.315,3.661q-.932,2.6-1.858,5.211c-.194.545-.124.667.451.665,1.968-.008,1.583.225,2.17-1.477a1.06,1.06,0,0,0,.032-.1.7.7,0,0,1,.8-.578c.767.018,1.536.037,2.3-.007a.9.9,0,0,1,1.064.75c.446,1.451.473,1.443,2.023,1.421.741-.011.814-.112.569-.805-.991-2.807-1.972-5.617-2.978-8.419m-.973,5.228a12.894,12.894,0,0,1-1.472.016c-.3-.005-.455-.164-.364-.461.325-1.056.666-2.107,1-3.16h.193c.332,1.071.676,2.138.978,3.217.027.1-.205.377-.335.389" transform="translate(-150.539 -519.921)" fill="#faf6f5"/>
        <path id="Path_37428" data-name="Path 37428" d="M4.829,583.862c-1.349-.03-2.7-.007-4.05,0-.709,0-.771.063-.773.794,0,1.46,0,2.919,0,4.379,0,1.241-.008,2.481,0,3.722.014,1.646-.27,1.529,1.639,1.522.412,0,.593-.182.587-.6-.012-.784,0-1.569,0-2.354,0-.664.09-.727.768-.759a21.728,21.728,0,0,0,2.721-.192,2.457,2.457,0,0,0,2.227-2.512c.01-.109.031-.217.04-.326.174-2.15-.869-3.621-3.162-3.671m.959,3.472A1.374,1.374,0,0,1,4.28,588.66c-.491.015-.983,0-1.474,0-.381,0-.578-.164-.569-.558.007-.327,0-.655,0-.983.01-1.591-.185-1.467,1.464-1.462a4.129,4.129,0,0,1,.865.081,1.372,1.372,0,0,1,1.221,1.592" transform="translate(0 -519.844)" fill="#faf6f5"/>
        <path id="Path_37429" data-name="Path 37429" d="M326.315,727.919c-.383-.006-.385.261-.386.524,0,.767,0,1.534,0,2.3,0,.785,0,1.57,0,2.356,0,.255-.015.536.371.54s.4-.262.4-.525q.007-2.328,0-4.656c0-.254,0-.532-.382-.538" transform="translate(-290.197 -648.123)" fill="#faf6f5"/>
        <path id="Path_37430" data-name="Path 37430" d="M95.811,593.194c0-.837-.019-.833-.873-.829-1.406.005-2.812-.016-4.217-.023a.547.547,0,0,1-.624-.642c.011-.42.012-.84,0-1.26-.014-.462.188-.664.655-.658,1.041.013,2.082,0,3.123,0,1.236,0,1.236,0,1.234-1.215,0-.617-.1-.722-.741-.729-.986-.011-1.972,0-2.958,0-1.347,0-1.347,0-1.312-1.32.017-.635.1-.735.735-.74,1.15-.01,2.3-.006,3.451-.005,1.243,0,1.225,0,1.218-1.231,0-.49-.171-.688-.669-.684-2.082.014-4.164.018-6.245,0-.558-.006-.729.212-.72.747.025,1.479.009,2.958.009,4.438,0,1.5.016,3-.008,4.492-.008.531.159.763.717.758,2.173-.018,4.346-.015,6.519,0,.505,0,.762-.177.71-.707-.013-.127,0-.256,0-.383" transform="translate(-78.235 -519.848)" fill="#faf6f5"/>
        <path id="Path_37431" data-name="Path 37431" d="M563.853,196.261c-.712-.018-1.034.294-1.042,1.011-.008.7.345,1.1.98,1.115a1.016,1.016,0,0,0,1.129-1.1c0-.674-.341-1-1.067-1.021" transform="translate(-501.114 -174.746)" fill="#ff8f05"/>
        <path id="Path_37432" data-name="Path 37432" d="M408.118,728.223c.15-.67.332-1.335,1.093-1.578a1.314,1.314,0,0,1,1.666.558.455.455,0,0,0,.436.062.421.421,0,0,0,.112-.4,1.829,1.829,0,0,0-.533-.664,2.4,2.4,0,0,0-3.4,1.123,4.533,4.533,0,0,0-.1,3,2.341,2.341,0,0,0,2.441,1.712,1.681,1.681,0,0,0,1.527-.8c.082-.156.005-.4,0-.6-.2.067-.474.072-.6.21a1.39,1.39,0,0,1-2.347-.284,9.538,9.538,0,0,1-.454-1.555l.073-.028a6.454,6.454,0,0,1,.082-.759" transform="translate(-362.549 -646.298)" fill="#faf6f5"/>
        <path id="Path_37433" data-name="Path 37433" d="M392.546,727.845c-.407.012-.409.288-.409.568q0,2.294,0,4.587c0,.28,0,.563.4.579.42.016.471-.257.472-.574,0-.765,0-1.529,0-2.294s0-1.529,0-2.294c0-.312-.034-.586-.464-.573" transform="translate(-349.147 -648.056)" fill="#faf6f5"/>
        <path id="Path_37434" data-name="Path 37434" d="M725.1,728.36c0-.274-.042-.5-.406-.515s-.467.2-.467.514q0,2.349,0,4.7c0,.312.1.532.469.522s.4-.245.405-.521q0-1.175,0-2.349c0-.783,0-1.566,0-2.349" transform="translate(-644.838 -648.056)" fill="#faf6f5"/>
        <path id="Path_37435" data-name="Path 37435" d="M273.767,588.89c-.219,0-.439.017-.657,0a.756.756,0,0,0-.867.57,1.884,1.884,0,0,1-1.812,1.338,2.134,2.134,0,0,1-2.269-1.191,4.963,4.963,0,0,1,.145-4.735,2.23,2.23,0,0,1,3.849.064,1.018,1.018,0,0,0,1.142.681c.235-.023.475,0,.712-.01.528-.029.647-.177.545-.694a2.518,2.518,0,0,0-.171-.518,4.214,4.214,0,0,0-4.131-2.511,4.34,4.34,0,0,0-4.389,2.837,7.316,7.316,0,0,0-.429,3.544,4.644,4.644,0,0,0,4.341,4.55,4.437,4.437,0,0,0,4.667-2.96c.276-.846.2-.96-.676-.963" transform="translate(-236.294 -518.095)" fill="#faf6f5"/>
        <path id="Path_37436" data-name="Path 37436" d="M625.894,728.332c-.109-.284-.194-.576-.616-.581s-.552.281-.679.588q-.929,2.248-1.85,4.5a4.2,4.2,0,0,0-.144.556c.483.219.739.037.836-.36a1.287,1.287,0,0,1,1.692-1.062,1.258,1.258,0,0,0,.218,0c1.024,0,1.038,0,1.391.969.175.482.44.682.994.461a6.012,6.012,0,0,0-.162-.624q-.833-2.227-1.681-4.448m-.276,2.96c-1.338.171-1.451.032-.953-1.211q.21-.525.419-1.051l.175.009c.226.61.458,1.217.676,1.829.1.281-.039.388-.316.424" transform="translate(-554.354 -647.972)" fill="#faf6f5"/>
        <path id="Path_37437" data-name="Path 37437" d="M741.668,730.044c.316-.491.646-.974.929-1.484.238-.428.1-.745-.3-.754q-1.368-.031-2.737.008c-.123,0-.24.193-.36.3.116.113.224.31.351.323.452.045.911.02,1.367.036.22.008.44.047.762.084-.283.453-.5.807-.723,1.157-.6.937-1.209,1.868-1.807,2.807-.322.505-.244.987.173,1,1,.034,2.007.023,3.01,0,.121,0,.345-.222.331-.312a.593.593,0,0,0-.316-.4,1.93,1.93,0,0,0-.65-.038c-.52,0-1.041,0-1.716,0,.188-.353.269-.535.375-.7.433-.676.877-1.345,1.311-2.02" transform="translate(-657.944 -648.01)" fill="#faf6f5"/>
        <path id="Path_37438" data-name="Path 37438" d="M917.217,581.047a4.423,4.423,0,0,0-4.574,2.883,7.022,7.022,0,0,0-.421,3.23c.166,2.51,1.617,4.686,4.452,4.885,2.519.177,4.413-.807,5.232-3.273a7.932,7.932,0,0,0,.243-3.359,4.577,4.577,0,0,0-4.931-4.367m2.037,8.05a2.562,2.562,0,0,1-3.925.242,4.846,4.846,0,0,1-.173-5.387,2.271,2.271,0,0,1,2.028-.951,2.231,2.231,0,0,1,2.4,1.54,4.763,4.763,0,0,1-.335,4.556" transform="translate(-812.198 -517.345)" fill="#faf6f5"/>
        <path id="Path_37439" data-name="Path 37439" d="M891.373,726.188c-1.226.54-1.441,1.639-1.546,2.956a10.023,10.023,0,0,0,.24,1.25,2.341,2.341,0,0,0,2.369,1.737,2.37,2.37,0,0,0,2.245-1.972,4.782,4.782,0,0,0-.075-2.483,2.33,2.33,0,0,0-3.234-1.488m2.225,4.447a1.332,1.332,0,0,1-1.257.814,1.263,1.263,0,0,1-1.256-.8,12.642,12.642,0,0,1-.434-1.605,11.632,11.632,0,0,1,.412-1.559,1.3,1.3,0,0,1,1.294-.835,1.339,1.339,0,0,1,1.276.869,3.629,3.629,0,0,1-.034,3.116" transform="translate(-792.282 -646.388)" fill="#faf6f5"/>
        <path id="Path_37440" data-name="Path 37440" d="M875.555,728a.623.623,0,0,0-.37.46q-.041,2.376,0,4.752a.626.626,0,0,0,.371.464c.356.082.393-.219.393-.491q0-1.175,0-2.349t0-2.349c0-.272-.037-.572-.394-.486" transform="translate(-779.227 -648.183)" fill="#faf6f5"/>
        <path id="Path_37441" data-name="Path 37441" d="M1112.406,592.373c-1.04.031-2.082.02-3.123.023-1.27,0-1.271,0-1.271-1.244,0-1.936,0-3.873,0-5.809,0-1.607.159-1.441-1.482-1.468-.536-.009-.752.173-.743.729.026,1.5.009,3,.009,4.494h0q0,2.192,0,4.384c0,.753.058.815.81.818,1.754.005,3.507,0,5.261,0,1.264,0,1.245,0,1.235-1.277,0-.509-.2-.666-.693-.651" transform="translate(-984.566 -519.868)" fill="#faf6f5"/>
        <path id="Path_37442" data-name="Path 37442" d="M1193.817,593.211c-.006-.775-.033-.8-.8-.8-1.315,0-2.63.009-3.945,0-.913-.009-.966-.073-.972-.962,0-.292,0-.585,0-.877.011-.66.077-.735.722-.74,1.023-.008,2.046,0,3.068,0,1.267,0,1.277-.025,1.234-1.286-.016-.459-.193-.665-.657-.66-1,.01-2.009,0-3.013,0-1.4,0-1.379,0-1.361-1.382.007-.538.239-.7.736-.688,1.205.018,2.411.008,3.616,0,1.247,0,1.137.15,1.162-1.2.009-.517-.172-.717-.7-.713q-3.178.026-6.356,0c-.529,0-.7.208-.69.719.022,1.5.008,3,.009,4.493q0,2.137,0,4.274c0,.92.015.937.96.937q2.932,0,5.863,0c1.128,0,1.128,0,1.119-1.112" transform="translate(-1055.868 -519.891)" fill="#faf6f5"/>
        <path id="Path_37443" data-name="Path 37443" d="M1022.795,583.894c-1.223.026-2.447,0-3.671,0-.867,0-.907.036-.909.885-.005,1.443,0,2.885,0,4.328h0q0,1.835,0,3.671c0,1.627,0,1.616,1.644,1.537.44-.021.63-.2.627-.631-.005-.749,0-1.5.008-2.246s.08-.814.81-.837c.693-.022,1.386-.045,2.077-.094a2.666,2.666,0,0,0,2.807-2.583c.33-2.458-.834-4.088-3.387-4.033m1.195,3.489a1.312,1.312,0,0,1-1.282,1.312c-.29.023-.583,0-.875,0-1.346.007-1.345.007-1.347-1.325,0-.383-.009-.766-.017-1.149-.007-.3.11-.518.431-.51a14.463,14.463,0,0,1,2.065.116c.776.132,1.093.688,1.026,1.552" transform="translate(-906.591 -519.885)" fill="#faf6f5"/>
        <path id="Path_37444" data-name="Path 37444" d="M837.059,593.664c-.009-.127,0-.255,0-.383-.005-.806-.068-.859-.881-.854-1.351.008-2.7.018-4.053,0-.66-.008-.766-.133-.786-.772-.011-.365.009-.731-.007-1.1-.023-.513.205-.725.72-.715,1.022.019,2.045.006,3.068.005,1.223,0,1.2,0,1.209-1.24,0-.524-.188-.721-.7-.713-1.022.018-2.045,0-3.068,0-1.241,0-1.251-.012-1.22-1.251.018-.723.1-.808.84-.812,1.169-.007,2.337,0,3.506,0,1.2,0,1.2,0,1.169-1.174-.016-.652-.086-.733-.729-.734q-3.1-.006-6.19,0c-.68,0-.761.077-.765.756-.008,1.479,0,2.958,0,4.437s0,2.958,0,4.437c0,.7.09.776.8.785.475.006.95,0,1.424,0,1.662,0,3.323-.009,4.985,0,.489,0,.716-.193.683-.685" transform="translate(-738.27 -519.915)" fill="#faf6f5"/>
        <path id="Path_37445" data-name="Path 37445" d="M946.654,728.138c-.01-.391-.353-.612-.6-.391a.792.792,0,0,0-.167.535c-.015,1.111-.007,2.222-.007,3.333l-.142.045c-.13-.193-.264-.383-.39-.579-.654-1.012-1.316-2.019-1.954-3.04a.624.624,0,0,0-.827-.318c-.156.074-.262.407-.265.625-.022,1.479-.012,2.958-.01,4.437,0,.109-.023.249.033.32.1.122.253.281.378.276a.466.466,0,0,0,.334-.309,11.811,11.811,0,0,0,.029-1.258c0-.847,0-1.695,0-2.542a17.353,17.353,0,0,1,1.347,1.9c.426.659.83,1.336,1.3,1.961a.984.984,0,0,0,.705.233c.081,0,.232-.332.238-.515.026-.839.014-1.68.013-2.52,0-.73.008-1.461-.011-2.191" transform="translate(-838.986 -647.891)" fill="#faf6f5"/>
        <path id="Path_37446" data-name="Path 37446" d="M828.122,727.819c-.134,0-.264.208-.4.319.122.107.232.286.367.307a5.845,5.845,0,0,0,.981.03c.387-.005.571.173.569.561,0,.656,0,1.312,0,1.968h.019c0,.711-.015,1.422.014,2.131a.562.562,0,0,0,.292.375.4.4,0,0,0,.375-.114.907.907,0,0,0,.082-.472c.006-1.275.014-2.551,0-3.826,0-.441.166-.642.611-.625a4.264,4.264,0,0,0,.926-.026c.149-.028.269-.214.4-.329-.139-.1-.276-.3-.417-.3q-1.913-.036-3.826,0" transform="translate(-736.989 -648.017)" fill="#faf6f5"/>
        <path id="Path_37447" data-name="Path 37447" d="M741.188,592.781c.014,1.709-.2,1.543,1.618,1.555.469,0,.66-.207.654-.663-.008-.766,0-1.533,0-2.3.008-.645.1-.727.724-.75.71-.026,1.421-.05,2.13-.095a2.713,2.713,0,0,0,2.852-2.668c.258-2.455-.892-3.987-3.442-3.948-1.259.02-2.519,0-3.777.005-.68,0-.754.072-.759.76-.009,1.478,0,2.956,0,4.435h0c0,1.223-.008,2.446,0,3.668m3.763-7.061a3.691,3.691,0,0,1,.916.114,1.307,1.307,0,0,1,1.094,1.61,1.323,1.323,0,0,1-1.389,1.267c-.509.027-1.021,0-1.531.009-.384,0-.576-.175-.572-.562,0-.328,0-.656,0-.984-.01-1.611-.112-1.46,1.482-1.453" transform="translate(-659.933 -519.902)" fill="#faf6f5"/>
        <path id="Path_37448" data-name="Path 37448" d="M781.374,728.46a.67.67,0,0,0-.519-.351.784.784,0,0,0-.566.38c-.708,1.64-1.381,3.3-2.057,4.95a1.118,1.118,0,0,0-.024.323c.361.092.693.1.778-.295.234-1.105.969-1.318,1.944-1.179.2.028.423-.049.6.021a1.608,1.608,0,0,1,.6.434,1.484,1.484,0,0,1,.213.558c.14.494.446.623.965.425a1.567,1.567,0,0,0-.043-.306c-.621-1.656-1.237-3.314-1.886-4.959m-1.57,3.1.849-2.189.185,0,.831,2.191Z" transform="translate(-692.898 -648.291)" fill="#faf6f5"/>
        <path id="Path_37449" data-name="Path 37449" d="M629.14,26.815a28.719,28.719,0,0,0-3.759-11.42,30.374,30.374,0,0,0-10.174-10.6c-.286-.183-.59-.337-1.029-.586.075.575.1,1,.19,1.421a18.621,18.621,0,0,1,.328,5.5,19.509,19.509,0,0,1-3,8.611,49.405,49.405,0,0,1-5.749,7.093c-1.832,2.009-3.726,3.964-5.493,6.027a21.849,21.849,0,0,0-4.254,7.167,15.5,15.5,0,0,0-.923,5.477,24,24,0,0,0,.206,2.507,19.956,19.956,0,0,0,.576,3.329,21.678,21.678,0,0,0,5.252,8.5,1.5,1.5,0,0,0,1.509.51c1.623-.344,3.274-.587,4.867-1.036A29.28,29.28,0,0,0,620.2,52.03a30.186,30.186,0,0,0,8.938-25.215" transform="translate(-530.017 -3.745)" fill="#ff8f05"/>
      </g>
    </g>
  </g>
</svg>
