<svg xmlns="http://www.w3.org/2000/svg" xmlns:xlink="http://www.w3.org/1999/xlink" width="249.689" height="120.729" viewBox="0 0 249.689 120.729">
  <defs>
    <clipPath id="clip-path">
      <rect id="Rectangle_22375" data-name="Rectangle 22375" width="167.728" height="35.262" fill="none" stroke="rgba(0,0,0,0)" stroke-width="1"/>
    </clipPath>
  </defs>
  <g id="Polygon_Logo" data-name="Polygon Logo" transform="translate(-1052.717)">
    <rect id="Rectangle_17476" data-name="Rectangle 17476" width="249.689" height="120.729" rx="9" transform="translate(1052.717)" fill="#060707"/>
    <g id="Group_51474" data-name="Group 51474" transform="translate(1093.698 42.734)">
      <g id="Group_51473" data-name="Group 51473" clip-path="url(#clip-path)">
        <path id="Path_42050" data-name="Path 42050" d="M29.706,10.773a2.439,2.439,0,0,0-2.469,0L21.572,14.2l-3.85,2.237-5.665,3.429a2.437,2.437,0,0,1-2.468,0l-4.5-2.684a2.584,2.584,0,0,1-1.235-2.162V9.729A2.429,2.429,0,0,1,5.084,7.567L9.515,4.958a2.437,2.437,0,0,1,2.468,0l4.431,2.609a2.581,2.581,0,0,1,1.234,2.162v3.429l3.85-2.311V7.418a2.427,2.427,0,0,0-1.235-2.162L12.056.336a2.437,2.437,0,0,0-2.468,0L1.235,5.256A2.429,2.429,0,0,0,0,7.418v9.914a2.429,2.429,0,0,0,1.235,2.162l8.353,4.92a2.437,2.437,0,0,0,2.468,0l5.665-3.354,3.85-2.311,5.665-3.355a2.444,2.444,0,0,1,2.469,0L34.137,18a2.583,2.583,0,0,1,1.234,2.162v5.294a2.429,2.429,0,0,1-1.234,2.162L29.706,30.3a2.439,2.439,0,0,1-2.469,0L22.806,27.7a2.583,2.583,0,0,1-1.234-2.162V22.1l-3.85,2.311v3.43a2.429,2.429,0,0,0,1.235,2.161l8.353,4.921a2.439,2.439,0,0,0,2.469,0l8.353-4.921a2.58,2.58,0,0,0,1.235-2.161V17.93a2.429,2.429,0,0,0-1.235-2.162Z" transform="translate(0 0)" fill="#7950dd" stroke="rgba(0,0,0,0)" stroke-width="1"/>
        <path id="Path_42051" data-name="Path 42051" d="M50.064,31.312v-8.23a5.459,5.459,0,0,0,4.363,1.752c4.757,0,7.971-3.4,7.971-8.6s-2.952-8.6-7.578-8.6a5.753,5.753,0,0,0-4.756,2.084V7.906H45.5V31.312ZM53.87,20.865c-2.462,0-4.069-1.85-4.069-4.627,0-2.811,1.608-4.662,4.069-4.662,2.393,0,4.034,1.851,4.034,4.662,0,2.777-1.641,4.627-4.034,4.627" transform="translate(4.639 0.779)" fill="#f1f1f1" stroke="rgba(0,0,0,0)" stroke-width="1"/>
        <path id="Path_42052" data-name="Path 42052" d="M71.039,24.833a8.373,8.373,0,0,0,8.726-8.6,8.727,8.727,0,0,0-17.453,0,8.374,8.374,0,0,0,8.726,8.6m0-3.968c-2.461,0-4.133-1.884-4.133-4.627,0-2.777,1.673-4.662,4.133-4.662s4.133,1.885,4.133,4.662c0,2.743-1.673,4.627-4.133,4.627" transform="translate(6.352 0.779)" fill="#f1f1f1" stroke="rgba(0,0,0,0)" stroke-width="1"/>
        <rect id="Rectangle_22374" data-name="Rectangle 22374" width="4.56" height="23.901" transform="translate(88.875 1.446)" fill="#f1f1f1" stroke="rgba(0,0,0,0)" stroke-width="1"/>
        <path id="Path_42053" data-name="Path 42053" d="M98.3,7.883,94.857,18.626,91.38,7.883H86.722l6,16.529L90.3,31.288h4.364l2.328-6.81,6-16.6Z" transform="translate(8.84 0.804)" fill="#f1f1f1" stroke="rgba(0,0,0,0)" stroke-width="1"/>
        <path id="Path_42054" data-name="Path 42054" d="M114.248,9.559a5.736,5.736,0,0,0-4.56-1.917c-4.823,0-7.742,3.406-7.742,8.6s2.919,8.6,7.807,8.6a5.485,5.485,0,0,0,4.528-1.95v2.182a2.439,2.439,0,0,1-2.4,2.644h-7.611v3.6h8.333c3.74,0,6.234-2.281,6.234-5.751V7.906h-4.593Zm-3.773,11.306c-2.428,0-4.035-1.817-4.035-4.627s1.608-4.662,4.035-4.662c2.461,0,4.068,1.851,4.068,4.662s-1.608,4.627-4.068,4.627" transform="translate(10.392 0.779)" fill="#f1f1f1" stroke="rgba(0,0,0,0)" stroke-width="1"/>
        <path id="Path_42055" data-name="Path 42055" d="M128.517,24.833a8.373,8.373,0,0,0,8.726-8.6,8.727,8.727,0,0,0-17.453,0,8.374,8.374,0,0,0,8.726,8.6m0-3.968c-2.461,0-4.133-1.884-4.133-4.627,0-2.777,1.673-4.662,4.133-4.662s4.133,1.885,4.133,4.662c0,2.743-1.673,4.627-4.133,4.627" transform="translate(12.211 0.779)" fill="#f1f1f1" stroke="rgba(0,0,0,0)" stroke-width="1"/>
        <path id="Path_42056" data-name="Path 42056" d="M142.486,24.568V15.444a3.433,3.433,0,0,1,3.412-3.7,3.19,3.19,0,0,1,3.181,3.472v9.354h4.593V14.189c0-3.835-2.428-6.547-6.168-6.547a5.531,5.531,0,0,0-5.018,2.58V7.906h-4.593V24.568Z" transform="translate(14.057 0.779)" fill="#f1f1f1" stroke="rgba(0,0,0,0)" stroke-width="1"/>
      </g>
    </g>
  </g>
</svg>
