<svg xmlns="http://www.w3.org/2000/svg" width="24" height="24" viewBox="0 0 24 24">
  <g id="Smart_Agricalture_icon" data-name="Smart Agricalture icon" transform="translate(-1158.422 -1175.438)">
    <rect id="Rectangle_21441" data-name="Rectangle 21441" width="24" height="24" transform="translate(1158.422 1175.438)" fill="none"/>
    <g id="Group_51537" data-name="Group 51537">
      <path id="Path_42087" data-name="Path 42087" d="M1168.43,1177.851h3.971c.081.44.165.88.239,1.321.02.117.083.152.185.193.538.213,1.072.434,1.6.668a.248.248,0,0,0,.283-.022c.363-.25.733-.492,1.069-.715l2.786,2.786c-.226.339-.457.7-.707,1.052a.282.282,0,0,0-.013.332c.2.453.417.906.581,1.374.087.247.18.4.463.425.376.039.747.126,1.12.193v3.972c-.44.08-.879.164-1.32.238-.117.02-.153.082-.194.185-.213.537-.434,1.072-.667,1.6a.245.245,0,0,0,.021.282c.25.364.491.733.717,1.072l-2.786,2.785c-.35-.233-.72-.475-1.084-.726a.234.234,0,0,0-.267-.012c-.512.224-1.026.447-1.549.644a.343.343,0,0,0-.258.306c-.07.409-.16.815-.241,1.219h-3.93c-.083-.413-.171-.814-.24-1.218a.343.343,0,0,0-.256-.307c-.513-.191-1.016-.407-1.516-.627a.286.286,0,0,0-.333.014c-.354.252-.721.486-1.052.706l-2.786-2.786c.229-.344.466-.711.716-1.068a.262.262,0,0,0,.013-.3c-.221-.507-.442-1.015-.636-1.532a.344.344,0,0,0-.307-.257c-.409-.071-.815-.16-1.217-.24v-3.931c.443-.089.876-.178,1.309-.26a.224.224,0,0,0,.188-.168q.321-.815.671-1.619a.235.235,0,0,0-.011-.267c-.255-.368-.5-.743-.725-1.082l2.786-2.786c.318.212.665.423.989.665a.382.382,0,0,0,.463.022,12.457,12.457,0,0,1,1.306-.55c.247-.085.4-.179.425-.462C1168.275,1178.595,1168.363,1178.224,1168.43,1177.851Zm2.217,3.424a6.174,6.174,0,1,0,5.939,6.406A6.186,6.186,0,0,0,1170.647,1181.275Z"/>
      <path id="Path_42088" data-name="Path 42088" d="M1170.978,1192.46c0-.353-.005-.689.007-1.025,0-.044.082-.113.136-.125a3.9,3.9,0,0,0,2.947-2.422,4.506,4.506,0,0,0,.276-2,3.035,3.035,0,0,1-5.613.381,4.622,4.622,0,0,0-2.221-.387,3.993,3.993,0,0,0,3.343,4.462v1.109a5.042,5.042,0,1,1,1.125,0Zm-2.934-8.136-.749.745.722.73.754-.748Zm4.752,1.487.74-.739-.747-.749-.744.738Zm-2.93-2.293v1.1h1.1v-1.1Z"/>
      <path id="Path_42089" data-name="Path 42089" d="M1169.771,1190.163a2.747,2.747,0,0,1-2.075-2.057A2.747,2.747,0,0,1,1169.771,1190.163Z"/>
      <path id="Path_42090" data-name="Path 42090" d="M1171.067,1190.172a2.749,2.749,0,0,1,2.059-2.074A2.749,2.749,0,0,1,1171.067,1190.172Z"/>
    </g>
  </g>
</svg>
