<svg xmlns="http://www.w3.org/2000/svg" xmlns:xlink="http://www.w3.org/1999/xlink" width="1801" height="821" viewBox="0 0 1801 821">
  <defs>
    <clipPath id="clip-path">
      <rect id="Rectangle_17522" data-name="Rectangle 17522" width="1801" height="821" transform="translate(-0.398 1626.435)" fill="#fff"/>
    </clipPath>
  </defs>
  <g id="The_Opportunity_background_yellow_lines" data-name="The Opportunity background yellow lines" transform="translate(0.398 -1626.435)" clip-path="url(#clip-path)">
    <g id="b" transform="translate(-76.165 1626.854)" opacity="0.25">
      <g id="c">
        <g id="Group_39972" data-name="Group 39972">
          <g id="Group_39950" data-name="Group 39950" transform="translate(0 579.556)">
            <path id="Path_34379" data-name="Path 34379" d="M0,468.2l36.8-27.541L72.99,415.072,108.6,391.414l35.126-21.762L178.309,349.7l34.092-18.21,33.606-16.494L279.1,300.124l32.693-13.3,32.237-11.8,31.811-10.354,31.477-8.939,31.021-7.645,30.747-6.351,30.352-5.147,30.048-4,29.743-2.92,29.439-1.926,29.2-.933,28.953-.06,28.679.843,28.527,1.565,28.253,2.318,28.162,2.92,55.746,7.675L871.5,251.6l54.986,10.956,54.742,11.859,109.607,24.561h-.03l55.077,11.708h-.031l55.5,10.685h-.03l56.081,9.18-.031-.03,56.75,7.194h-.031l28.71,2.709h-.03l28.892,1.987h-.03l29.166,1.234h-.03l29.47.482h-.031l29.683-.391h-.031l30.047-1.354h-.03l30.352-2.318h-.061l30.686-3.341h-.031l31.082-4.455h-.061l31.447-5.659h-.061l31.811-6.893-.03.03,32.237-8.157h-.03l32.693-9.541-.03.03,33.089-10.926h-.03l33.606-12.4h-.031l34.032-13.936-.03.03,34.609-15.561-.03.03,35.126-17.217-.031.03,35.644-18.9h-.03l36.221-20.678,1.125,1.956-36.221,20.708-35.674,18.9-35.187,17.217-34.609,15.561-34.093,13.966-33.636,12.431-33.15,10.926-32.724,9.541-32.3,8.157-31.842,6.893-31.477,5.689-31.112,4.455-30.717,3.371-30.382,2.318-30.078,1.354-29.743.391-29.47-.482-29.227-1.234-28.922-2.017-28.74-2.679-56.78-7.194-56.111-9.18L1145.4,312.886l-55.077-11.708L980.743,276.616h0L926,264.758h.03L871.076,253.8l.03.03-55.29-9.541h.031l-55.716-7.645h.03l-28.1-2.92h.03l-28.253-2.318h.031L675.4,229.843h.03L646.753,229h.03l-28.892.06h.03l-29.166.933h.061l-29.409,1.9h.03l-29.713,2.92h.03l-29.987,4h.03l-30.321,5.147.061-.03-30.717,6.381.061-.03-30.99,7.615h.03l-31.416,8.939h.03l-31.781,10.324h.03L312.58,288.927h.03L279.978,302.2h.03L246.95,317.039l.03-.03L213.435,333.5h.03L179.4,351.683h.03l-34.549,19.9h.061l-35.1,21.762.03-.03L74.267,416.938h.03l-36.16,25.524h0L1.369,470Z" transform="translate(0 -192.55)" fill="#fc0"/>
          </g>
          <g id="Group_39951" data-name="Group 39951" transform="translate(0.395 551.955)">
            <path id="Path_34380" data-name="Path 34380" d="M.13,477.869l35.279-28.052,34.853-26.005L104.688,399.7l33.91-22.213,33.545-20.407,33.15-18.631,32.724-16.916,32.329-15.29,31.994-13.7,31.629-12.25,31.325-10.715,30.99-9.331,30.686-8.036,30.413-6.742,30.139-5.538,29.865-4.364,29.622-3.281,29.409-2.257,29.166-1.294,29.014-.361,28.831.451,28.648,1.2,28.5,2.017,28.375,2.649,56.324,6.983,56.05,8.939,55.746,10.354,55.655,11.317,111.492,23.447,56.05,11.2h0l56.415,10.2h-.031l56.963,8.7h-.03l57.6,6.712h-.03l29.074,2.468h-.031l29.287,1.746h-.031l29.47,1.053h-.031l29.713.241h-.03l30.017-.6h-.03l30.23-1.565h-.03l30.5-2.5h-.03l30.838-3.612h-.061l31.142-4.665-.061.03,31.446-5.869h-.03l31.811-7.073-.061.03,32.146-8.368h-.031l32.542-9.692h-.031l32.907-11.107h-.031l33.3-12.581h-.031l33.758-14.116-.061.03,34.214-15.712h-.061l34.609-17.367h-.03l35.065-19.083-.03.03,35.583-20.889,1.156,1.956-35.583,20.889-35.1,19.083-34.64,17.4-34.244,15.742-33.788,14.116-33.332,12.611-32.967,11.137-32.572,9.722-32.177,8.368-31.872,7.073-31.447,5.869-31.173,4.7-30.869,3.582-30.534,2.528-30.291,1.565-30.048.6-29.743-.241-29.5-1.053-29.318-1.746-29.1-2.5-57.632-6.712-57.024-8.7-56.446-10.2-56.081-11.2L972.267,274.49h0L916.612,263.2h.03L860.9,252.818l.03.03-55.99-8.939.03.03-56.293-7.013h.03l-28.344-2.619h.03l-28.466-2.017h.03l-28.618-1.2h.03l-28.8-.451h.061L605.643,231h.03l-29.135,1.294h.061l-29.409,2.257h.03l-29.561,3.281h.03l-29.835,4.334h.061L457.808,247.7h.061l-30.382,6.712h.03l-30.656,8.006h.061l-30.96,9.331.061-.03-31.264,10.715h.03l-31.6,12.19h.03l-31.964,13.665h.03l-32.268,15.29.03-.03-32.694,16.886.03-.03L173.3,359.038h.03l-33.515,20.347.03-.03L105.935,401.6l.03-.03L71.6,425.647l.03-.03L36.808,451.622l.03-.03L1.559,479.645Z" transform="translate(-0.13 -183.38)" fill="#fc0"/>
          </g>
          <g id="Group_39952" data-name="Group 39952" transform="translate(0.791 524.355)">
            <path id="Path_34381" data-name="Path 34381" d="M.26,487.571l33.819-28.5L67.593,432.58l33.119-24.561L133.5,385.354l32.481-20.828,32.176-19.053L230,328.106l31.6-15.742,31.294-14.116,31.051-12.581,30.747-11.2,30.565-9.722,30.321-8.4,30.078-7.133,29.926-5.869,29.683-4.756,29.531-3.642,29.379-2.649,29.166-1.625,29.074-.753,28.892.151,28.831.933,28.649,1.625,28.649,2.318,56.932,6.381,56.719,8.307,56.6,9.782,56.537,10.745,113.378,22.394v-.03l57.023,10.715h-.03l57.389,9.662h-.03l57.875,8.217h-.061l58.453,6.23h-.03l29.439,2.227h-.03l29.622,1.6h-.031l29.835.783h-.031l30.017.03h-.031l30.23-.873h-.03l30.443-1.716h-.031l30.717-2.739h-.061l30.93-3.762h-.03l31.234-4.906h-.031l31.477-6.02h-.061l31.781-7.284-.031.03,32.085-8.578-.061.03,32.359-9.9-.03.03,32.693-11.347-.03.03,33.028-12.792-.03.03,33.423-14.3h-.03l33.727-15.892-.03.03,34.093-17.578-.03.03,34.549-19.293-.03.03,34.883-21.039,1.186,1.926-34.913,21.039L1875.8,216.469l-34.153,17.578-33.788,15.922L1774.405,264.3l-33.058,12.792-32.754,11.347-32.389,9.9-32.115,8.548-31.812,7.314-31.538,6.02-31.264,4.906-30.96,3.762-30.747,2.739-30.473,1.746-30.26.873-30.078-.03-29.835-.813-29.683-1.565L1308,329.611l-58.483-6.261-57.906-8.217-57.419-9.662-57.023-10.715L963.79,272.393h0l-56.537-10.745h.03l-56.567-9.782.03.03-56.719-8.307h.061l-56.9-6.381h.03l-28.588-2.318h.03l-28.649-1.625h.03l-28.8-.933h.03l-28.862-.15h.03l-29.014.752h.03l-29.166,1.625h.061L535,237.177h.031l-29.47,3.642h.03l-29.622,4.756.031-.03-29.9,5.9.061-.03-30.048,7.133h.061l-30.291,8.368h.03l-30.5,9.722.061-.03-30.747,11.167.061-.03-31.021,12.581h.061l-31.264,14.086.03-.03L231.03,330.123l.061-.03L199.28,347.43h.03l-32.146,19.023h.03l-32.42,20.8.03-.03-32.754,22.634h.03L68.962,434.386l.03-.03L35.508,460.813l.03-.03L1.72,489.286Z" transform="translate(-0.26 -174.21)" fill="#fc0"/>
          </g>
          <g id="Group_39953" data-name="Group 39953" transform="translate(1.156 496.754)">
            <path id="Path_34382" data-name="Path 34382" d="M.38,497.243l32.359-28.955,32.146-26.969,31.9-25.012,31.629-23.116,31.447-21.28,31.173-19.474,31.021-17.789,30.808-16.133,30.595-14.538L313.9,290.944l30.23-11.558,30.139-10.113,29.926-8.789,29.774-7.495,29.683-6.291,29.561-5.087,29.379-4.033,29.318-2.95,29.2-2.017,29.135-1.053,29.013-.211,28.983.572,28.862,1.294,28.862,1.987,57.51,5.779,57.449,7.705,57.388,9.18,57.449,10.173,115.264,21.31h-.031l58.027,10.143h-.03l58.362,9.21-.03-.03,58.726,7.736h-.03l59.244,5.749h-.03l29.835,2.017h-.03l29.956,1.324h-.03l30.2.6h-.031l30.291-.181h-.03l30.473-1.053h-.03l30.656-1.987h-.031l30.869-2.95-.03.03,31.082-4-.031.03,31.264-5.117h-.03l31.477-6.2h-.03l31.751-7.465h-.061l32.024-8.759h-.061l32.207-10.113-.03.03,32.511-11.5-.03.03,32.754-12.973-.061.03,33.089-14.508h-.031l33.3-16.043h-.031L1872,205.644l-.03.03,33.91-19.444-.031.03,34.275-21.22,1.187,1.926-34.275,21.22-33.94,19.444-33.667,17.788-33.363,16.073L1772.944,256l-32.785,13-32.542,11.5-32.267,10.113-32.025,8.759-31.781,7.495-31.538,6.23-31.325,5.117-31.112,3.973-30.9,2.95-30.717,1.987-30.5,1.053-30.352.181-30.2-.6-29.987-1.324-29.835-2.017-59.3-5.779-58.757-7.705-58.392-9.21L1070.6,291.576l-115.263-21.31h0l-57.419-10.173h.031l-57.358-9.18.031.03L783.2,243.237h.03l-57.48-5.779h.03l-28.8-1.987-28.831-1.294h.03l-28.953-.572h.03l-28.983.211h.03l-29.074,1.053h.031l-29.166,1.987h.031l-29.287,2.98h.061l-29.348,4h.03l-29.5,5.087h.03l-29.622,6.261.03-.03-29.743,7.495h.061l-29.9,8.789.03-.03-30.078,10.113.061-.03-30.23,11.558.061-.03-30.382,13h.03l-30.565,14.508h.03l-30.777,16.1h.061l-30.99,17.728h.061L161.08,373.807l.03-.03-31.386,21.25.03-.03-31.6,23.116h.03L66.314,443.095l.03-.03L34.229,469.973h.03L1.9,498.9Z" transform="translate(-0.38 -165.04)" fill="#fc0"/>
          </g>
          <g id="Group_39954" data-name="Group 39954" transform="translate(1.551 469.123)">
            <path id="Path_34383" data-name="Path 34383" d="M.51,506.935l30.9-29.467,30.777-27.42,30.625-25.434,30.534-23.537,30.352-21.7,30.23-19.956,30.139-18.21,30.048-16.554L274.04,309.7,303.875,296.3l29.713-11.979,29.652-10.5,29.531-9.18,29.5-7.886L451.71,250.1l29.348-5.478,29.318-4.334,29.257-3.371,29.226-2.318,29.166-1.445,29.135-.542,29.1.241,29.1.993,29.044,1.686,29.074,2.288,29.044,2.829,58.179,7.1,58.21,8.608,58.3,9.572,117.21,20.2h-.03l58.97,9.662h0l59.274,8.7h-.03l59.669,7.224h-.03l60.065,5.3h-.03l30.2,1.776h0l30.322,1.114h-.031l30.473.361h-.03l30.564-.391h-.03l30.747-1.294h-.031l30.869-2.137h-.03l31.051-3.191h-.031l31.2-4.184-.03.03,31.355-5.328h-.03l31.538-6.441h-.061l31.72-7.645H1642l31.9-8.939h-.061l32.116-10.264-.061.03L1738.16,258.8h-.031l32.481-13.153-.061.03,32.724-14.688-.061.03,32.937-16.284-.03.03,33.15-17.909-.031.03L1902.6,177.26l-.061.03,33.575-21.43,1.247,1.926-33.606,21.4-33.393,19.625-33.15,17.939-33,16.284-32.724,14.688-32.542,13.183-32.268,11.708-32.146,10.294-31.933,8.939-31.781,7.675-31.568,6.471-31.386,5.327-31.234,4.184-31.112,3.16-30.9,2.167-30.778,1.294-30.625.391-30.5-.361-30.351-1.114-30.23-1.776-60.1-5.3-59.73-7.224-59.3-8.7-58.97-9.692-117.209-20.2h.03l-58.3-9.571h0l-58.179-8.608h.03l-58.118-7.073h.03l-29.044-2.829h.03l-29.044-2.288L685.248,236.1h.03l-29.074-.993h.03l-29.074-.241h.031l-29.1.542h.03l-29.135,1.415h.031l-29.2,2.348h.061l-29.226,3.341h.03l-29.257,4.334h.061l-29.348,5.478h.061l-29.379,6.622h.03L393.409,266.8h.03l-29.5,9.18.03-.03-29.591,10.5.03-.03-29.652,11.949.03-.03-29.8,13.394.061-.03-29.9,14.959.061-.03-30.017,16.524h.03l-30.078,18.18.03-.03-30.2,19.926.03-.03-30.321,21.671h.03l-30.5,23.507.03-.03-30.565,25.4h.03L32.96,479.153l.03-.03L2.091,508.56Z" transform="translate(-0.51 -155.86)" fill="#fc0"/>
          </g>
          <g id="Group_39955" data-name="Group 39955" transform="translate(1.916 441.552)">
            <path id="Path_34384" data-name="Path 34384" d="M.63,516.556l29.439-29.918L59.478,458.8l29.379-25.915,29.379-24.019,29.287-22.123,29.318-20.377L206.1,347.731l29.257-16.976L264.611,315.4l29.226-13.846,29.2-12.341,29.2-10.926,29.227-9.541,29.135-8.247,29.226-7.043,29.2-5.839,29.2-4.756,29.2-3.672,29.227-2.679,29.226-1.776,29.226-.873,29.287-.09,29.287.662,29.287,1.324,29.348,1.987,29.378,2.5,58.879,6.5,58.97,8.036,59.244,9,119.1,19.143h0l59.913,9.12h0l60.217,8.187-.031-.03,60.582,6.8h-.03l60.886,4.816h-.031l30.565,1.535h0l30.656.9h-.03l30.808.151h-.03l30.869-.632h-.03l30.99-1.475h-.031l31.112-2.438h-.03l31.2-3.341h-.031l31.325-4.394h-.061l31.447-5.508h-.031l31.568-6.652-.031.03,31.69-7.856-.031.03,31.812-9.18-.031.03,31.9-10.474h-.03l32.055-11.859h-.03l32.207-13.334-.03.03,32.359-14.869-.03.03,32.48-16.464-.031.03L1866.53,188l-.031.03,32.785-19.805-.03.03,32.937-21.551,1.247,1.866L1900.5,170.147l-32.845,19.835-32.663,18.089-32.541,16.494-32.39,14.869L1737.794,252.8l-32.116,11.889-31.964,10.474-31.842,9.18-31.72,7.856-31.629,6.652-31.477,5.508-31.355,4.425-31.264,3.341-31.142,2.408-31.021,1.5-30.9.632-30.839-.151-30.686-.9-30.626-1.535-60.916-4.846-60.612-6.772-60.247-8.157-59.943-9.15L938.4,266.012h0l-59.213-9h.03l-58.97-8.037h.031l-58.848-6.471h.03l-29.348-2.5-29.287-1.987L673.568,236.7l-29.227-.662h.03l-29.257.09h.031l-29.2.873h.031l-29.2,1.746h.03l-29.166,2.709.03-.03-29.165,3.672h.03l-29.135,4.756.03-.03-29.166,5.839h.061L411.169,262.7l.03-.03-29.1,8.247.03-.03-29.166,9.541h.03l-29.135,10.9h.03l-29.135,12.31.03-.03-29.166,13.815.03-.03-29.2,15.35.03-.03-29.2,16.946.03-.03-29.2,18.631.03-.03-29.287,20.347.03-.03-29.257,22.093.03-.03L90.347,434.627l.03-.03L61.029,460.452h.03L31.681,488.263l.03-.03L2.272,518.122Z" transform="translate(-0.63 -146.7)" fill="#fc0"/>
          </g>
          <g id="Group_39956" data-name="Group 39956" transform="translate(2.311 413.951)">
            <path id="Path_34385" data-name="Path 34385" d="M.76,526.229l27.98-30.34,28.04-28.323,28.132-26.4,28.192-24.44,28.253-22.6L169.7,373.356,198.107,354.3l28.466-17.427L255.1,321.1l28.618-14.237,28.74-12.7,28.74-11.317,28.8-9.963,28.861-8.669,28.983-7.374,29.014-6.2,29.1-5.117,29.135-4.033,29.226-3.04,29.318-2.137,29.318-1.2,29.47-.391,29.439.3,29.561,1.053,29.652,1.625,29.683,2.227,59.578,5.869,59.791,7.4,60.126,8.458,120.951,18.059,60.916,8.638h-.03l61.19,7.645h-.03l61.464,6.291h-.03l61.737,4.364h-.03l30.96,1.294h-.03l31.051.692h-.031l31.082-.12h-.031l31.2-.813h-.031l31.234-1.716h-.03l31.295-2.588h-.031l31.416-3.582h-.061l31.447-4.605-.03.03,31.507-5.689h-.061l31.629-6.832h-.031l31.629-8.067h-.03l31.72-9.331-.03.03,31.781-10.685h-.03l31.842-12.07-.031.03,31.964-13.514h-.061l31.994-15.049-.03.03,32.055-16.645-.031.03,32.177-18.24h-.061l32.177-19.986-.031.03,32.3-21.762,1.278,1.9-32.3,21.731-32.207,20.016-32.207,18.27L1800.6,216.088l-32.025,15.08-31.994,13.545-31.9,12.1L1672.841,267.5l-31.751,9.331-31.69,8.1-31.66,6.833-31.538,5.689-31.477,4.635-31.447,3.552-31.355,2.619-31.234,1.716-31.234.813-31.142.12-31.051-.692-30.99-1.294-61.768-4.364-61.494-6.291-61.19-7.675-60.947-8.638L929.893,263.916h.03l-60.1-8.458h.031l-59.791-7.4h.031l-59.548-5.869h0L720.9,239.957h.03l-29.591-1.625h0l-29.531-1.053h.03l-29.439-.3h.031l-29.409.391h.03l-29.318,1.2h.061l-29.287,2.137h.061l-29.2,3.01h.03l-29.1,4.063.03-.03-29.044,5.117h.03l-28.983,6.17h.061l-28.922,7.374.03-.03-28.8,8.669.03-.03-28.77,9.933h.061L313.31,296.242l.03-.03-28.649,12.7h.03L256.164,323.12l.03-.03-28.466,15.742h.03L199.323,356.2h.03l-28.344,18.992.061-.03L142.726,395.93l.03-.03-28.223,22.574.061-.03-28.162,24.41.03-.03L58.392,469.161h.03l-28.04,28.293.03-.03-27.98,30.34Z" transform="translate(-0.76 -137.53)" fill="#fc0"/>
          </g>
          <g id="Group_39957" data-name="Group 39957" transform="translate(2.707 386.351)">
            <path id="Path_34386" data-name="Path 34386" d="M.89,535.93l26.52-30.851L54.082,476.3l26.885-26.818L108,424.594l27.219-23.056,27.371-21.19,27.554-19.474,27.675-17.849,27.888-16.193L273.69,312.2l28.192-13.153L330.2,287.373l28.436-10.354,28.557-9.03,28.77-7.766,28.831-6.622,28.983-5.418,29.074-4.425,29.257-3.371,29.348-2.468,29.439-1.565,29.591-.752,29.683.03,29.774.692,29.926,1.294,29.987,1.926,60.278,5.267,60.643,6.832,60.977,7.886,61.312,8.458,61.585,8.518,61.89,8.1h-.031l62.1,7.194h-.03l62.376,5.809h-.061l62.589,3.853h-.03l31.325,1.084h-.031l31.416.452h-.03l31.447-.3h-.03L1419,301.61l-.03.03,31.507-1.926h-.03l31.507-2.829h-.03l31.568-3.762h-.03l31.568-4.816h-.061l31.629-5.9-.03.03,31.629-7.043h-.061l31.629-8.247h-.03l31.629-9.541h-.03l31.659-10.836h-.061l31.629-12.25-.031.03,31.66-13.725-.031.03,31.659-15.23h-.03l31.629-16.825-.061.03,31.69-18.421-.061.03,31.629-20.166-.03.03,31.629-21.942,1.308,1.866-31.659,21.942-31.66,20.166-31.689,18.451-31.66,16.855-31.72,15.26-31.72,13.725-31.659,12.28-31.72,10.866-31.659,9.541-31.659,8.277-31.69,7.043-31.629,5.9-31.6,4.816-31.629,3.793-31.538,2.829-31.537,1.9-31.477,1.084-31.477.3-31.416-.452-31.355-1.084-62.619-3.883-62.376-5.809-62.133-7.194-61.89-8.1-61.585-8.518-61.312-8.458h0L860.5,253.873h0l-60.612-6.8h.031L739.641,241.8h.03l-29.956-1.926h.03l-29.9-1.294h.03l-29.774-.692h.03l-29.652-.03h.031l-29.561.752h.03l-29.378,1.565h.03l-29.318,2.438h.03l-29.226,3.371h.061l-29.044,4.424h.03l-28.922,5.418h.03l-28.8,6.592.061-.03-28.709,7.766.061-.03-28.557,9.03.061-.03L330.988,289.48l.061-.03L302.8,301.128h.03l-28.132,13.093.03-.03-27.919,14.628.03-.03-27.827,16.193.061-.03-27.645,17.788.03-.03-27.493,19.444.03-.03-27.341,21.19.061-.03L109.524,426.31l.03-.03L82.548,451.112l.03-.03L55.724,477.87l.03-.03L29.113,506.614l.03-.06L2.624,537.405Z" transform="translate(-0.89 -128.36)" fill="#fc0"/>
          </g>
          <g id="Group_39958" data-name="Group 39958" transform="translate(3.102 358.81)">
            <path id="Path_34387" data-name="Path 34387" d="M1.02,545.562l25-31.3,25.364-29.226,25.607-27.3L102.9,432.42l26.155-23.507L155.485,387.3l26.641-19.926,26.946-18.24,27.158-16.585,27.4-15.08,27.615-13.545,27.858-12.1,28.1-10.685,28.284-9.421,28.466-8.157,28.709-6.953,28.862-5.809,29.044-4.786,29.257-3.7,29.409-2.8,29.561-1.9,29.743-1.114,29.9-.3,29.987.331,30.169,1.023,30.321,1.6,61.008,4.665,61.433,6.261,61.889,7.314,62.224,7.886,62.589,7.976h-.03l62.832,7.615h0l63.075,6.682h-.03l63.258,5.267h-.031l63.38,3.461h-.03l31.72.873h-.03l31.751.181h-.03l31.781-.512h-.03l31.75-1.294h-.03l31.75-2.137h-.03l31.72-3.01h-.031l31.751-4h-.061l31.69-5.026-.03.03,31.69-6.11h-.031l31.629-7.224-.03.03,31.568-8.488h-.03l31.568-9.692-.03.03,31.507-11.076-.031.03,31.446-12.461-.061.03,31.355-13.906-.03.03,31.294-15.441-.031.03,31.234-17.006-.03.03,31.173-18.631-.03.03,31.051-20.317-.03.03L1920.2,119.21l1.339,1.806-30.96,22.123-31.112,20.347-31.2,18.631-31.294,17.036-31.325,15.441L1734.23,228.53l-31.477,12.461-31.568,11.076-31.6,9.692-31.629,8.488-31.69,7.254-31.72,6.08-31.72,5.027-31.781,4-31.751,3.04-31.812,2.137-31.781,1.294-31.781.512-31.781-.181-31.72-.873-63.441-3.461-63.288-5.267-63.076-6.712-62.863-7.585-62.589-8.006-62.224-7.886h.03l-61.859-7.284-61.4-6.261h.03l-60.977-4.665h.031l-30.291-1.6-30.139-1.023h.03l-29.987-.331h.03l-29.865.3h.03l-29.683,1.084h.03l-29.531,1.926h.03l-29.409,2.769h.061l-29.2,3.732.03-.03L461.891,253h.061l-28.831,5.839.061-.03-28.649,6.953h.061l-28.466,8.127.061-.03-28.253,9.391H348l-28.04,10.685.061-.03-27.827,12.07h.061l-27.584,13.514.061-.03-27.371,15.049.061-.03-27.128,16.554.03-.03-26.885,18.21.061-.03-26.641,19.9.061-.03-26.4,21.611.061-.06-26.124,23.477.03-.03L78.633,459.329l.03-.03-25.577,27.24.03-.03L27.783,515.734l.03-.06-25.03,31.3Z" transform="translate(-1.02 -119.21)" fill="#fc0"/>
          </g>
          <g id="Group_39959" data-name="Group 39959" transform="translate(3.497 331.149)">
            <path id="Path_34388" data-name="Path 34388" d="M1.15,555.275,24.689,523.52l24-29.738,24.391-27.721L97.8,440.266l25.09-23.9,25.455-22.093,25.82-20.347L200.322,355.3l26.459-17.036L253.6,322.82l27.128-13.966,27.4-12.461,27.675-11.106,28.01-9.782,28.223-8.518,28.557-7.374,28.709-6.14,29.014-5.087,29.257-4.124,29.439-3.13,29.713-2.288,29.865-1.415,30.108-.632,30.26.06,30.443.722,30.6,1.264,61.707,4.063L842,248.536l62.741,6.742,63.167,7.344,63.532,7.434,63.806,7.073h-.03l64.018,6.2h0l64.14,4.816h-.031l64.231,2.92h-.03l32.085.632h-.03l32.116-.03h-.03l32.085-.692h-.03l32.055-1.535h-.03l31.994-2.318h-.031l31.933-3.251h-.03l31.872-4.214h-.031l31.842-5.177h-.031l31.781-6.291h-.03l31.629-7.465-.03.03,31.6-8.669h-.061l31.477-9.9h-.061l31.386-11.257-.061.03,31.234-12.611h-.031l31.082-14.056h-.03l30.96-15.591h-.03l30.839-17.156-.061.03,30.656-18.812-.061.03,30.5-20.528-.061.03,30.321-22.273,1.369,1.806-30.352,22.3-30.5,20.558L1826.054,173.5l-30.869,17.187-31.021,15.621-31.143,14.116-31.264,12.611-31.416,11.287-31.507,9.933-31.629,8.669-31.659,7.465-31.842,6.291-31.872,5.207-31.933,4.244-31.964,3.221L1415.91,291.7l-32.085,1.535-32.085.692-32.146.03-32.116-.632-64.261-2.92-64.2-4.846-64.049-6.17-63.775-7.073-63.562-7.465-63.167-7.314h.03l-62.741-6.742h.03l-62.255-5.628h.031L717.882,241.1h.03l-30.6-1.264h.03l-30.412-.722-30.23-.06.03-.03-30.078.662h.03L566.854,241.1h.03l-29.652,2.257h.03l-29.409,3.16h.031l-29.2,4.093.03-.03L449.735,255.7l.061-.03-28.709,6.17.061-.03-28.5,7.344h.03l-28.192,8.488h.061L336.6,287.393h.03L309.016,298.47l.061-.03L281.706,310.9l.061-.03-27.1,13.936.061-.03-26.763,15.411.03-.03-26.428,17.006.061-.03-26.094,18.6.03-.03-25.759,20.347.03-.06-25.425,22.063.061-.03-25.06,23.868.03-.03L74.748,467.6l.03-.03-24.36,27.661.03-.03L26.484,524.9l.03-.03L2.975,556.629Z" transform="translate(-1.15 -110.02)" fill="#fc0"/>
          </g>
          <g id="Group_39960" data-name="Group 39960" transform="translate(3.862 303.578)">
            <path id="Path_34389" data-name="Path 34389" d="M1.27,564.957,23.38,532.72,46.007,502.5,69.12,474.358l23.6-26.216,24.056-24.38,24.512-22.514,24.938-20.768L191.592,361.4l25.82-17.427,26.155-15.862,26.611-14.327,26.945-12.913L324.464,289.4l27.675-10.2,28.01-8.879,28.344-7.675,28.679-6.531,28.953-5.478,29.226-4.455,29.5-3.491,29.8-2.589,30.048-1.746,30.26-.993,30.5-.271,30.747.391,30.929.993,62.376,3.431L832.6,246.96l63.653,6.2,64.109,6.772,64.505,6.923,64.779,6.562h-.03l64.961,5.659h-.03l65.083,4.364h-.03l65.022,2.5-.031-.03,32.511.421h-.03l32.45-.271h-.03l32.389-.933h-.03l32.328-1.746h-.03l32.268-2.558h-.03l32.176-3.461h-.061l32.055-4.394-.03.03,31.964-5.478-.031.03,31.872-6.5h-.061l31.69-7.645h-.03l31.507-8.819-.031.03,31.386-10.113h-.03l31.2-11.468-.03.03,31.021-12.822-.031.03L1761.729,196l-.061.03,30.625-15.8-.03.03,30.382-17.367-.061.03,30.2-18.993-.03.03,29.865-20.678-.03.03,29.652-22.454,1.4,1.776-29.683,22.484-29.926,20.708L1823.8,164.85l-30.412,17.367L1762.7,198.05l-30.838,14.267-31.082,12.822-31.264,11.5-31.447,10.113-31.568,8.819-31.72,7.675-31.9,6.5-31.994,5.448-32.085,4.425-32.207,3.461-32.3,2.558-32.359,1.746-32.389.933-32.48.271-32.511-.421-65.083-2.468-65.113-4.364-64.961-5.659-64.779-6.562-64.5-6.923-64.109-6.8-63.623-6.17-63.045-5.057h.03L707.023,240.7l.03.03-30.9-.993-30.717-.361h.03l-30.473.241h.03l-30.23.993h.031l-30.017,1.746h.03l-29.774,2.589h.061l-29.47,3.491h.03l-29.2,4.425h.03l-28.892,5.448h.03l-28.618,6.531.03-.03-28.284,7.705.061-.03-28.01,8.849h.061l-27.615,10.173.061-.03-27.31,11.468.061-.03L271.181,315.8l.061-.03-26.55,14.3.03-.03L218.628,345.9l.03-.03L192.9,363.233l.061-.03-25.334,19.053.061-.03-24.908,20.708.03-.03-24.482,22.484.061-.03-24.026,24.35.03-.06L70.854,475.833l.03-.03L47.8,503.916l.03-.03L25.2,534.045l.03-.03L3.156,566.221Z" transform="translate(-1.27 -100.86)" fill="#fc0"/>
          </g>
          <g id="Group_39961" data-name="Group 39961" transform="translate(4.258 275.978)">
            <path id="Path_34390" data-name="Path 34390" d="M1.4,574.628l20.62-32.687L43.278,511.27l21.867-28.594,22.414-26.7,23.022-24.8,23.57-22.966,24.056-21.19,24.634-19.474L207.9,349.7l25.607-16.254L259.542,318.7l26.52-13.3,26.976-11.859L340.409,283l27.767-9.3,28.192-8.036,28.557-6.893,28.892-5.839,29.257-4.816,29.561-3.793,29.9-2.95,30.2-2.077,30.5-1.294,30.717-.6,30.99.09,31.234.632,63.136,2.829,63.9,4.485,64.5,5.568,65.053,6.291,65.478,6.381,65.721,6.02,65.9,5.177h-.03l65.965,3.853h-.031l65.9,2.017h-.03l32.846.181,32.785-.482h-.031l32.694-1.2h-.03l32.663-1.926h-.031l32.511-2.739h-.03l32.389-3.7h-.03l32.207-4.605h-.03l32.115-5.629-.03.03,31.9-6.712h-.031l31.69-7.826h-.061l31.538-9.09-.061.03,31.294-10.294h-.031l31.082-11.618h-.061l30.808-13-.031.03,30.534-14.448-.03.03,30.291-15.983-.061.03,29.956-17.548-.03.03,29.652-19.2-.031.03,29.348-20.829-.03.03,28.983-22.634,1.4,1.776L1880.651,116.1l-29.378,20.889-29.713,19.2-29.987,17.578-30.352,15.983-30.595,14.478-30.838,13.033-31.112,11.648-31.355,10.294-31.568,9.09-31.72,7.856-31.933,6.712-32.176,5.629-32.237,4.635-32.42,3.672-32.541,2.769-32.694,1.926-32.693,1.2-32.845.482L1281.615,283l-65.934-2.017-66-3.853-65.9-5.177-65.752-6.05-65.478-6.381L887.5,253.261h.03l-64.535-5.568h.03l-63.866-4.485h.03l-63.106-2.829h.03l-31.2-.632h.03l-30.99-.09h.03l-30.686.6h.03l-30.5,1.294h.03l-30.139,2.077h.03l-29.865,2.92h.03l-29.531,3.823h.03l-29.2,4.786.03-.03-28.861,5.839h.061l-28.5,6.863h.03l-28.132,8.036h.03l-27.706,9.271.03-.03-27.31,10.5h.061L287,307.44h.061l-26.459,13.244.061-.03-26,14.718.061-.03-25.547,16.253.03-.03-25.03,17.789.061-.03-24.573,19.444.03-.03-24.026,21.129.061-.03-23.509,22.935.03-.03L89.262,457.483l.061-.03L66.909,484.091l.03-.03L45.1,512.625l.03-.06L23.905,543.175l.03-.03L3.316,575.832Z" transform="translate(-1.4 -91.69)" fill="#fc0"/>
          </g>
          <g id="Group_39962" data-name="Group 39962" transform="translate(4.653 248.377)">
            <path id="Path_34391" data-name="Path 34391" d="M1.53,584.331l19.16-33.169,19.92-31.122L61.2,490.963l21.289-27.149,21.958-25.193,22.6-23.417,23.2-21.611,23.843-19.925,24.391-18.27,25-16.675L249,323.613l26.094-13.7,26.55-12.25,27.1-10.956,27.554-9.632,27.98-8.4,28.436-7.314,28.862-6.17,29.287-5.147,29.622-4.154,30.017-3.281,30.321-2.408,30.686-1.655,30.99-.9,31.294-.241,31.538.331,63.836,2.227,64.657,3.883,65.448,5.026,66,5.689,66.421,5.869,66.695,5.538h0l66.847,4.665,66.816,3.4h-.03l66.725,1.535h-.03l33.241-.06h-.031l33.15-.722,33.028-1.384h-.031l32.906-2.167h-.03l32.785-3.01-.03.03,32.6-3.883h-.03l32.389-4.846-.03.03,32.207-5.839h-.031l31.994-6.893h-.031l31.72-8.036h-.03l31.477-9.24h-.03l31.234-10.474-.061.03L1698,207.25l-.061.03,30.595-13.213-.03.03,30.261-14.628-.031.03,29.9-16.193-.03.03,29.561-17.7h-.061l29.165-19.324-.03.03,28.77-21.069-.03.03L1904.32,82.52l1.429,1.776-28.375,22.785-28.8,21.1-29.227,19.354-29.591,17.758L1759.8,181.486l-30.321,14.658-30.625,13.213-30.991,11.859L1636.6,231.691l-31.538,9.27-31.751,8.066-32.055,6.923-32.238,5.809-32.42,4.846-32.633,3.883-32.815,2.98-32.937,2.2-33.089,1.384-33.15.722-33.3.06-66.725-1.565-66.877-3.371-66.877-4.665-66.695-5.568-66.451-5.839-65.965-5.689h0l-65.417-5.027h.03l-64.657-3.883h.03L685.234,240h.03l-31.507-.331h.03l-31.264.241h.03l-30.96.9h.03l-30.656,1.655H561l-30.291,2.408h.03l-30.017,3.251h.061l-29.591,4.154h.03l-29.226,5.147.031-.03-28.8,6.17h.03l-28.375,7.284h.03l-27.919,8.368h.03l-27.493,9.632.03-.03-27.006,10.926.03-.03-26.489,12.25.03-.03L250.092,325.6l.061-.06-25.486,15.11.061-.03-24.969,16.645.061-.03-24.33,18.21.03-.03-23.752,19.9.03-.06L128.624,416.83l.03-.03-22.536,23.357.03-.06L84.222,465.259l.03-.03L63.024,492.318l.03-.03L42.5,521.3l.03-.03-19.89,31.062.03-.03L3.507,585.444Z" transform="translate(-1.53 -82.52)" fill="#fc0"/>
          </g>
          <g id="Group_39963" data-name="Group 39963" transform="translate(5.048 220.776)">
            <path id="Path_34392" data-name="Path 34392" d="M1.66,594.032l17.7-33.621,18.521-31.6,19.373-29.527L77.387,471.71l20.893-25.7L119.934,422.2l22.353-22.063,23.022-20.317,23.752-18.661,24.36-17.1,25.03-15.531,25.607-14.056L290.245,301.8l26.793-11.317,27.31-10.023,27.827-8.789,28.344-7.615,28.831-6.532,29.226-5.508,29.713-4.515,30.139-3.612,30.473-2.769,30.869-1.956,31.2-1.2,31.568-.6,31.842.03,64.566,1.625L804.46,242.3l66.3,4.485L937.7,251.9l67.394,5.328h-.031l67.7,5,67.759,4.184,67.759,2.889h-.03l67.516,1.084h-.031l33.636-.271h-.03l33.515-.933h-.03l33.363-1.625h-.031l33.211-2.378h-.031l33.028-3.221h-.03l32.785-4.093h-.03l32.6-5h-.03l32.328-6.05h-.03l32.055-7.133h-.031l31.781-8.217h-.061l31.477-9.451-.061.03,31.112-10.715-.031.03,30.778-12.009-.03.03,30.382-13.394h-.031l29.987-14.809-.061.03,29.592-16.344-.061.03,29.135-17.939-.03.03,28.679-19.5-.061.03,28.193-21.19-.061.03,27.706-23,1.46,1.746-27.706,23-28.223,21.22-28.74,19.564-29.165,17.939-29.622,16.374L1728.3,188.027l-30.473,13.424-30.808,12.009-31.173,10.715-31.507,9.451-31.812,8.247-32.116,7.164-32.359,6.05-32.633,5.027-32.815,4.094-33.058,3.221-33.241,2.378-33.393,1.625-33.515.933-33.667.271-67.546-1.084-67.789-2.889-67.79-4.184-67.7-5.027-67.394-5.3-66.938-5.117-66.269-4.485h0l-65.478-3.281h.03l-64.505-1.625h.03l-31.812-.03h.03l-31.568.6h.03l-31.173,1.2-30.808,1.956h.03l-30.473,2.769h.03l-30.108,3.582h.03l-29.622,4.515.03-.03-29.226,5.538.061-.03-28.8,6.531.061-.03-28.314,7.615h.061L345.078,282.6h.03l-27.25,9.993.061-.03-26.733,11.317.03-.03L265.093,316.49l.061-.03-25.577,14.026.061-.03-24.969,15.5.03-.03-24.3,17.036.061-.03-23.722,18.631.061-.06L143.839,401.79l.03-.03-22.292,22.032.03-.06-21.593,23.778.03-.06L79.182,473.095l.03-.03-20.1,27.511.03-.03L39.8,530.012l.03-.06L21.337,561.5l.03-.03-17.7,33.59Z" transform="translate(-1.66 -73.35)" fill="#fc0"/>
          </g>
          <g id="Group_39964" data-name="Group 39964" transform="translate(5.444 193.205)">
            <path id="Path_34393" data-name="Path 34393" d="M1.79,603.684l16.24-34.1,17.183-32.025,18.1-29.979,18.977-28.052,19.859-26.1,20.65-24.26,21.5-22.484,22.262-20.738,23.022-19.083,23.813-17.518,24.452-15.922,25.182-14.478,25.851-13.033,26.459-11.678L332.4,283.822l27.675-9.15,28.192-7.976,28.77-6.893,29.287-5.869,29.743-4.876,30.23-3.913,30.656-3.1,31.051-2.318,31.477-1.535,31.842-.9,32.146-.241,65.265.993,66.33,2.679,67.181,3.913,67.85,4.575,68.4,4.786,68.641,4.485h-.031l68.763,3.672h-.031l68.641,2.408h-.031l68.368.6h-.031l34-.512h-.031l33.88-1.144h-.03l33.667-1.836h-.031l33.515-2.589h-.031L1441,255.62h-.031L1474,251.346h-.03l32.724-5.237-.031.03,32.481-6.261h-.031l32.146-7.344h-.03l31.781-8.428-.03.03,31.416-9.662-.03.03,31.021-10.9h-.031l30.626-12.16h-.031l30.169-13.575-.061.03,29.713-15.049-.031.03,29.227-16.524-.031.03,28.709-18.09-.03.03,28.193-19.715-.061.03,27.615-21.37-.031.03,27.007-23.116,1.49,1.686-27.036,23.176-27.645,21.4L1814.894,130.2l-28.771,18.12-29.287,16.554-29.743,15.049-30.23,13.6-30.686,12.19-31.082,10.926-31.477,9.632-31.811,8.458-32.207,7.344-32.511,6.261-32.754,5.237-33.089,4.3-33.3,3.431-33.514,2.619-33.7,1.836-33.91,1.144-34,.512-68.4-.6-68.672-2.408-68.763-3.672-68.641-4.485-68.4-4.786-67.85-4.575h.031l-67.181-3.913h.03l-66.3-2.679h.03l-65.235-.993h.03l-32.146.241-31.811.9h.03l-31.416,1.535h.03L537.142,244.3h.03l-30.625,3.1.03-.03-30.2,3.913h.061l-29.713,4.876h.03L417.529,262h.03l-28.709,6.863h.03l-28.162,7.976.061-.03-27.645,9.15.061-.03-27.006,10.384h.061l-26.428,11.648.061-.03-25.79,13,.03-.03-25.09,14.478.061-.03-24.421,15.862.03-.03-23.722,17.488.061-.06L158.05,387.664l.061-.06-22.232,20.708.061-.03-21.471,22.424.03-.06L93.91,454.875l.03-.06-19.8,26.036.03-.03L55.225,508.812l.03-.06L37.19,538.671l.03-.03L20.068,570.606l.03-.03L3.858,604.648Z" transform="translate(-1.79 -64.19)" fill="#fc0"/>
          </g>
          <g id="Group_39965" data-name="Group 39965" transform="translate(5.839 165.605)">
            <path id="Path_34394" data-name="Path 34394" d="M1.92,613.386,16.7,578.833l15.784-32.507L49.364,515.9l17.822-28.474L85.95,460.845l19.738-24.711,20.589-22.875,21.5-21.19,22.353-19.5,23.2-17.879,23.935-16.374L242,323.473l25.455-13.424,26.155-12.04L320.461,287.2l27.493-9.511,28.1-8.367,28.709-7.254,29.287-6.2,29.835-5.177,30.321-4.3,30.808-3.4,31.264-2.649,31.69-1.866,32.116-1.234,32.481-.572,65.965.421,67.12,2.107,68.094,3.311,68.793,4.033,69.341,4.244,69.584,3.973,69.706,3.19h-.03l69.584,1.926h-.03l69.158.12h-.03l34.4-.722h-.03l34.245-1.385h-.031l34-2.077h-.031l33.788-2.8h-.03l33.515-3.642h-.03l33.241-4.515h-.061l32.937-5.448-.031.03,32.6-6.471h-.031l32.237-7.495h-.061l31.842-8.669h-.061l31.416-9.812h-.061l30.96-11.076-.061.03,30.5-12.371h-.061l29.987-13.785-.03.03,29.409-15.2h-.061l28.922-16.675-.06.03,28.283-18.24-.061.03,27.706-19.926-.061.06L1866,78.287l-.03.06,26.368-23.327,1.521,1.686-26.4,23.327-27.067,21.641L1812.651,121.6l-28.344,18.27L1755.354,156.6l-29.439,15.23-30.047,13.815-30.534,12.4-30.99,11.076-31.447,9.842-31.842,8.669-32.3,7.525-32.633,6.471-32.967,5.448-33.241,4.515-33.575,3.642-33.788,2.829-34.032,2.077-34.244,1.385-34.427.722-69.189-.12-69.584-1.926-69.736-3.191-69.584-3.973L922.416,248.8l-68.793-4.033-68.063-3.311h.03l-67.121-2.107h.03l-65.934-.421h.03l-32.45.572h.031l-32.116,1.234h.03L556.432,242.6h.03L525.2,245.246l.03-.03-30.747,3.4h.03l-30.291,4.3h.03l-29.8,5.177h.061l-29.227,6.2.03-.03-28.649,7.224.03-.03-28.04,8.4.03-.03-27.462,9.511.061-.03-26.793,10.775.061-.03L268.425,312.1l.061-.03-25.394,13.394.061-.03-24.665,14.809.061-.03-23.9,16.314.061-.03L171.561,374.34l.061-.06-22.292,19.474.03-.06-21.441,21.129.061-.06-20.559,22.845.03-.03L87.775,462.229l.03-.06L69.071,488.686l.03-.06L51.31,517.07l.03-.06-16.849,30.37.03-.06L18.769,579.766v-.03L4.018,614.259Z" transform="translate(-1.92 -55.02)" fill="#fc0"/>
          </g>
          <g id="Group_39966" data-name="Group 39966" transform="translate(6.204 138.004)">
            <path id="Path_34395" data-name="Path 34395" d="M2.04,623.089l13.321-35.035,14.446-32.958,15.6-30.912,16.666-28.895,17.731-27,18.765-25.163,19.768-23.3,20.711-21.611,21.654-19.9,22.536-18.33,23.478-16.735,24.269-15.23,25.09-13.846,25.851-12.461,26.611-11.137,27.31-9.9,28.04-8.7,28.649-7.615,29.287-6.531,29.9-5.568,30.443-4.635,30.93-3.762,31.477-2.92,31.933-2.2,32.389-1.535,32.785-.9,33.15-.361,33.545.15,67.911,1.535,69.006,2.739,69.766,3.491,70.283,3.732,70.526,3.431h0l70.679,2.709h-.03l70.405,1.415h-.031l70.04-.331h-.031l34.761-.963h-.03l34.579-1.625-.031.03,34.336-2.288h-.031l34.093-3.04h-.03l33.758-3.883-.03.03,33.454-4.756h-.031l33.119-5.659h-.061l32.694-6.622h-.031l32.329-7.735h-.061l31.842-8.819h-.03l31.355-10.023h-.03l30.9-11.257h-.061l30.321-12.551h-.061l29.774-13.966-.03.03L1752.8,146.32l-.031.03,28.557-16.886-.061.03,27.857-18.451-.03.03L1836.28,91l-.03.03,26.429-21.7-.061.03,25.729-23.507,1.551,1.655-25.759,23.537L1837.679,92.8l-27.25,20.106-27.919,18.481-28.618,16.916-29.2,15.411-29.8,14-30.352,12.611-30.96,11.287-31.416,10.053-31.872,8.819-32.359,7.766-32.724,6.652-33.15,5.659-33.484,4.756-33.788,3.853-34.123,3.07-34.336,2.257-34.609,1.6-34.792.993-70.04.331L1126.452,256l-70.679-2.709-70.557-3.461-70.283-3.7-69.766-3.491h.03L776.221,239.9l-67.881-1.535h.03l-33.545-.15h.03l-33.119.361-32.754.9h.03l-32.389,1.535h.03l-31.9,2.2h.03l-31.447,2.92h.03l-30.93,3.762h.03l-30.382,4.635.03-.03-29.865,5.538h.03l-29.226,6.531h.03L364.5,274.151l.03-.03-27.949,8.729.03-.03-27.28,9.872h.061L282.869,303.8l.03-.03L257.079,316.2l.061-.03-25.03,13.815.061-.03-24.208,15.17.061-.03L184.606,361.8l.061-.03-22.475,18.27.03-.03L140.6,399.844l.061-.06-20.65,21.581.061-.06-19.738,23.236.061-.03-18.734,25.1.03-.06-17.7,26.909.03-.03L47.415,525.267l.03-.06L31.875,556.058l.03-.03-14.416,32.9v-.03L4.2,623.871Z" transform="translate(-2.04 -45.85)" fill="#fc0"/>
          </g>
          <g id="Group_39967" data-name="Group 39967" transform="translate(6.63 110.403)">
            <path id="Path_34396" data-name="Path 34396" d="M2.18,632.73l11.8-35.487,13.108-33.41,14.355-31.393,15.51-29.316,16.7-27.48L91.441,450.12l18.886-23.778,19.981-22,20.954-20.317L173.19,365.3l22.931-17.156,23.843-15.621,24.695-14.237,25.547-12.852,26.368-11.5,27.158-10.264,27.888-9.09,28.618-7.946,29.287-6.893,29.956-5.9,30.534-4.966,31.142-4.093,31.66-3.281,32.176-2.5,32.633-1.866,33.089-1.2,33.545-.662,33.849-.151,68.763.9,69.858,2.2,70.709,2.92,71.226,3.19,71.561,2.95h-.03l71.591,2.2h-.03l71.348.933h-.03l70.861-.813h-.031l35.157-1.174,34.883-1.806h-.031l34.67-2.528h-.031l34.366-3.281h-.031l34.032-4.063-.03.03,33.667-4.936h-.03l33.271-5.869h-.031l32.845-6.832h-.061l32.389-7.916h-.061l31.933-9.06-.061.03,31.355-10.234h-.061l30.808-11.468-.061.03,30.169-12.792-.061.03,29.592-14.147-.061.03,28.861-15.591-.03.03,28.193-17.066-.061.06,27.463-18.661-.03.03L1833.5,82.22l-.061.03,25.912-21.942-.03.06,25.03-23.688,1.581,1.625-25.06,23.718L1834.9,84l-26.7,20.257-27.523,18.691-28.253,17.066-28.892,15.621-29.652,14.177-30.2,12.792-30.839,11.5-31.386,10.234-31.964,9.09-32.389,7.916-32.906,6.863-33.3,5.869-33.7,4.936-34.062,4.063-34.366,3.281-34.7,2.528-34.914,1.806L1264,251.858l-70.892.813-71.378-.933-71.591-2.2-71.56-2.95L907.318,243.4h.03l-70.709-2.92-69.827-2.2-68.7-.9-33.849.151h.03l-33.515.662h.03l-33.089,1.2h.03l-32.6,1.866h.03L533,243.761h.03L501.4,247.012h.03l-31.082,4.093h.03l-30.5,4.966.03-.03-29.926,5.9h.061L380.816,268.8h.03l-28.588,7.946h.061l-27.827,9.06.03-.03-27.1,10.264.061-.03-26.337,11.5.061-.03-25.486,12.792.061-.03L221.12,334.449l.061-.03L197.4,350.011l.061-.06-22.87,17.126.061-.06-21.9,18.691.061-.06L131.92,405.9l.061-.03L112.03,427.816l.061-.06L93.266,451.474l.03-.06L75.565,476.908l.03-.06L58.93,504.238l.03-.03L43.48,533.464l.03-.06L29.186,564.737l.03-.06-13.077,33.35v-.06l-11.8,35.487Z" transform="translate(-2.18 -36.68)" fill="#fc0"/>
          </g>
          <g id="Group_39968" data-name="Group 39968" transform="translate(6.995 82.832)">
            <path id="Path_34397" data-name="Path 34397" d="M2.3,642.412l10.371-35.968,11.77-33.861,13.077-31.815L51.872,510.94,67.5,483.068l16.849-26.005,18-24.17,19.19-22.454,20.285-20.708,21.35-19.113,22.384-17.548,23.387-16.043,24.33-14.6,25.273-13.213,26.124-11.889,27.006-10.655,27.767-9.451,28.557-8.307,29.318-7.224,29.987-6.261,30.625-5.3,31.294-4.394,31.872-3.612,32.42-2.859,32.906-2.167,33.423-1.5,33.849-.993,34.275-.452,69.554.331,70.74,1.625,71.622,2.408,72.23,2.649,72.5,2.408,72.534,1.686h-.031l72.26.451h-.031l71.652-1.264h-.031L1296.505,243l35.279-2.047h-.031l34.975-2.709h-.031l34.64-3.461h-.031l34.306-4.3h-.031l33.88-5.147h-.031l33.454-6.05h-.03l32.937-7.1-.031.03,32.45-8.127h-.03l31.933-9.24h-.061l31.325-10.414-.061.03L1662,172.808h-.061l30.048-12.973h-.031l29.348-14.327-.03.03,28.587-15.772-.061.03,27.858-17.247-.061.03,27.037-18.812-.061.03,26.246-20.407-.061.03,25.3-22.123-.061.06,24.421-23.838,1.581,1.6-24.421,23.869-25.334,22.153L1805.976,95.6l-27.067,18.842-27.919,17.277-28.649,15.8-29.409,14.357-30.078,13.033-30.747,11.648-31.355,10.444-31.964,9.24-32.481,8.127-33,7.1-33.484,6.08-33.91,5.147-34.336,4.3-34.64,3.491-35,2.709-35.309,2.047-35.552,1.445-71.682,1.264-72.291-.451-72.534-1.686-72.5-2.408-72.26-2.649-71.591-2.408L757.5,236.738l-69.523-.331-34.214.451-33.819.993-33.393,1.5h.03l-32.876,2.167h.03l-32.42,2.859h.03l-31.842,3.582h.03l-31.234,4.394h.03l-30.6,5.3h.03l-29.956,6.23h.061l-29.287,7.224h.03l-28.5,8.277.061-.03-27.736,9.451.061-.03-26.976,10.655.061-.03-26.064,11.859.061-.03-25.212,13.183.061-.03-24.3,14.568.061-.06-23.3,16.013.061-.03-22.323,17.488.061-.06-21.319,19.083.061-.06L123.22,412l.03-.06-19.129,22.394.061-.06L86.208,458.387l.061-.06L69.451,484.272l.03-.06-15.6,27.812.03-.06L39.586,541.7l.03-.06L26.539,573.4l.03-.06L14.83,607.166l.03-.06L4.52,643.044Z" transform="translate(-2.3 -27.52)" fill="#fc0"/>
          </g>
          <g id="Group_39969" data-name="Group 39969" transform="translate(7.421 55.202)">
            <path id="Path_34398" data-name="Path 34398" d="M2.44,652.135l8.911-36.42,10.371-34.343,11.8-32.266,13.26-30.249,14.537-28.323,15.906-26.427,17.153-24.621,18.4-22.845,19.586-21.19L153.1,375.976l21.867-17.969L197.9,341.573l24-14.989L246.8,313.009l25.911-12.28,26.854-11.016,27.645-9.812,28.527-8.668,29.318-7.585,30.048-6.592,30.747-5.659,31.477-4.756,32.024-3.943,32.663-3.16,33.211-2.468,33.7-1.836,34.214-1.264,34.609-.783,70.375-.211L819.777,234l72.564,1.836,73.172,2.107,73.507,1.866h-.031l73.477,1.2h73.081l72.5-1.716h-.031l35.917-1.686h-.03l35.613-2.257h-.03l35.339-2.98h-.031l34.944-3.672h-.03l34.518-4.515h-.03l34.093-5.358h-.031l33.606-6.291-.03.03,33.119-7.284h-.03l32.511-8.307h-.03l31.933-9.451-.061.03,31.294-10.625h-.061l30.625-11.859h-.061l29.9-13.153-.031.03,29.135-14.538-.061.03,28.344-15.952-.061.03,27.523-17.427-.061.03L1802.375,85.1l-.061.06,25.7-20.588-.031.06,24.725-22.3-.061.06L1876.4,18.34l1.642,1.6-23.782,24.049-24.786,22.333-25.729,20.618-26.672,19.023-27.554,17.488-28.406,15.983-29.166,14.538-29.956,13.183-30.656,11.889-31.325,10.655-31.964,9.451-32.572,8.337-33.18,7.284-33.636,6.291-34.093,5.358-34.579,4.545-34.974,3.672-35.339,2.98-35.613,2.257-35.948,1.686-72.5,1.716h-73.172l-73.477-1.2L965.453,240.2l-73.172-2.107-72.564-1.836-71.622-1.023h.031l-70.344.211h.03l-34.609.783-34.153,1.264-33.7,1.836h.03l-33.18,2.468h.031l-32.633,3.16h.03L477.605,248.9l.03-.03-31.416,4.756h.03l-30.717,5.628h.03l-29.987,6.592h.03L356.351,273.4h.03l-28.466,8.668.061-.03-27.615,9.782h.061l-26.793,10.986.061-.03-25.851,12.25.061-.03L223.022,328.54l.061-.03-23.9,14.959.03-.03-22.87,16.374.061-.03-21.806,17.909.061-.06-20.681,19.444.03-.06-19.525,21.13.061-.06L96.171,440.87l.061-.06L79.14,465.34l.03-.06L63.3,491.647l.061-.06L48.819,519.849l.03-.06-13.2,30.159.03-.06L23.85,582.094l.03-.06-10.34,34.313v-.06l-8.88,36.39Z" transform="translate(-2.44 -18.34)" fill="#fc0"/>
          </g>
          <g id="Group_39970" data-name="Group 39970" transform="translate(7.816 27.631)">
            <path id="Path_34399" data-name="Path 34399" d="M2.57,661.817,6.1,643.125l3.893-18.24,9.033-34.794L29.576,557.4l12.1-30.731,13.473-28.745,14.963-26.848,16.271-25.073L104,422.74l18.917-21.551,20.133-19.956,21.35-18.3L186.9,346.108,210.44,330.7l24.695-13.936,25.638-12.672,26.672-11.377L315,282.539l28.466-9,29.348-7.976,30.108-6.923,30.869-5.99,31.568-5.087,32.268-4.244,32.876-3.492,33.515-2.8,34-2.167,34.518-1.565,35-1.053,71.2-.843,72.5.451,73.537,1.264,74.146,1.625,74.45,1.385h-.031l74.419.692,74.024-.512h-.03l73.325-2.2h-.031l36.282-1.926h-.031l35.978-2.5,35.613-3.16,35.248-3.913h-.031l34.762-4.726-.031.03,34.336-5.568h-.03l33.758-6.5-.061.03,33.271-7.495h-.061l32.633-8.548h-.061l31.933-9.632-.03.03,31.264-10.836h-.031l30.534-12.04-.03.03,29.713-13.364-.061.03,28.953-14.749-.061.03,28.04-16.1-.03.03,27.158-17.638-.061.03,26.216-19.173-.061.06,25.212-20.8-.061.03,24.148-22.454-.03.03L1872.393,9.18l1.673,1.535-23.083,24.23-24.208,22.514L1801.5,78.287l-26.246,19.2-27.219,17.7-28.1,16.133-29.014,14.749-29.743,13.364-30.6,12.07-31.325,10.866L1567.264,192l-32.633,8.578-33.3,7.495-33.788,6.5-34.336,5.568-34.822,4.7-35.279,3.943-35.643,3.16-36.008,2.5-36.282,1.926-73.355,2.2-74.055.512-74.45-.692L958.862,237l-74.146-1.625-73.507-1.264h.03l-72.5-.452h.03L667.6,234.5l-34.974,1.053h.03l-34.518,1.565h.031l-34,2.167h.031l-33.484,2.8.031-.03L497.9,245.578l.03-.03-32.237,4.244h.03l-31.568,5.087h.03l-30.808,5.99.03-.03-30.078,6.923.061-.03L344.1,275.707l.03-.03-28.405,9h.061L288.265,294.82h.061l-26.611,11.317.061-.03-25.607,12.642.061-.03-24.6,13.936.061-.03-23.509,15.35.061-.06-22.444,16.8.061-.06-21.289,18.27.061-.06-20.072,19.9.061-.06L105.76,424.185l.061-.06L88.242,447.331l.03-.06-16.24,24.982.061-.06L57.16,498.981l.03-.06L43.749,527.605l.03-.06L31.736,558.186v-.09L21.213,590.753l.03-.06-9.033,34.734.03-.03-3.923,18.18v-.03l-3.5,18.691Z" transform="translate(-2.57 -9.18)" fill="#fc0"/>
          </g>
          <g id="Group_39971" data-name="Group 39971" transform="translate(8.211)">
            <path id="Path_34400" data-name="Path 34400" d="M2.7,671.539l2.8-18.962,3.193-18.421,7.664-35.246,9.276-33.169,10.918-31.122,12.469-29.226,13.959-27.3L78.4,452.629l16.849-23.718,18.217-21.972,19.525-20.347L153.82,367.84l22.019-17.217,23.2-15.742,24.36-14.357,25.425-13.033,26.52-11.739,27.432-10.565,28.405-9.391L360.5,267.55l30.169-7.314,30.99-6.321,31.751-5.418,32.45-4.575,33.119-3.853,33.758-3.1,34.336-2.468,34.883-1.866,35.37-1.385,71.987-1.415,73.416-.09,74.42.722,75.149,1.053,75.393.873,75.362.15,74.937-.963h-.03l74.146-2.679v.03l36.647-2.137h-.031l36.343-2.739h-.031l35.948-3.371h-.03l35.522-4.154h-.03l35.035-4.936L1466,205.817h-.031l33.94-6.682-.031.03,33.363-7.705h-.031L1565.9,182.7h-.061l31.994-9.812h-.061l31.264-11.016-.061.03,30.443-12.25h-.031l29.591-13.514h-.061l28.709-14.9-.061.03,27.766-16.344-.03.06L1772.1,87.167l-.061.03,25.79-19.324-.061.03,24.726-20.979-.061.03,23.6-22.634-.061.06L1868.417,0l1.672,1.535-22.444,24.38L1823.985,48.61l-24.756,21.039L1773.409,89l-26.854,17.849-27.828,16.374-28.77,14.929L1660.3,151.729l-30.473,12.28-31.294,11.016-32.024,9.842-32.724,8.789-33.423,7.705-33.971,6.682-34.549,5.779-35.1,4.966-35.522,4.124-35.978,3.4-36.343,2.739-36.677,2.107-74.176,2.679-75,.963-75.362-.15-75.423-.873-75.15-1.053h.031L802.7,232h.03l-73.416.09h.03l-71.956,1.415h.03l-35.37,1.385h.03l-34.853,1.866-34.305,2.468h.03l-33.727,3.1-33.089,3.823h.03l-32.42,4.575h.03l-31.72,5.418.03-.03-30.93,6.321h.03l-30.108,7.284h.03l-29.257,8.247h.03l-28.345,9.361h.061l-27.4,10.5.03-.03L249.8,309.538l.061-.03-25.394,13,.061-.03L200.26,336.808l.061-.06-23.144,15.712.061-.03-21.988,17.156.061-.06-20.772,18.692.061-.06-19.464,20.317.061-.06L97.04,430.3l.03-.06L80.282,453.893l.03-.06L64.954,479.206l.03-.06-13.9,27.24.03-.06L38.648,535.461l.03-.09L27.821,566.433v-.06l-9.276,33.109.03-.06-7.664,35.186v-.03l-3.163,18.36v-.03l-2.8,18.962Z" transform="translate(-2.7)" fill="#fc0"/>
          </g>
        </g>
      </g>
    </g>
  </g>
</svg>
