<svg id="EDUBUK_Logo" data-name="EDUBUK Logo" xmlns="http://www.w3.org/2000/svg" xmlns:xlink="http://www.w3.org/1999/xlink" width="249.689" height="120.729" viewBox="0 0 249.689 120.729">
  <defs>
    <clipPath id="clip-path">
      <rect id="Rectangle_20690" data-name="Rectangle 20690" width="92.782" height="80.449" fill="none"/>
    </clipPath>
  </defs>
  <rect id="Rectangle_17476" data-name="Rectangle 17476" width="249.689" height="120.729" rx="9" transform="translate(0)" fill="#060707"/>
  <g id="Group_46833" data-name="Group 46833" transform="translate(78.911 20.056)">
    <g id="Group_46832" data-name="Group 46832" clip-path="url(#clip-path)">
      <path id="Path_37401" data-name="Path 37401" d="M155.066,102.764a8.177,8.177,0,1,1-8.159,8.217,8.172,8.172,0,0,1,8.159-8.217" transform="translate(-130.586 -91.347)" fill="#e61e21"/>
      <path id="Path_37402" data-name="Path 37402" d="M174.885,260.774c1.99,0,3.821-.007,5.65.015a.51.51,0,0,1,.358.345c.063.9.088,1.8.115,2.707a20.948,20.948,0,0,0,2.357,9.006,24.5,24.5,0,0,0,3.186,5.426,24.988,24.988,0,0,0,2.6,2.4,14.952,14.952,0,0,0,4.627,2.659c.559.2,1.115.408,1.673.612l-.051.212a21.75,21.75,0,0,1-2.75-.322,22.45,22.45,0,0,1-7.724-3.429,23.472,23.472,0,0,1-6.66-6.855,20.7,20.7,0,0,1-3.138-8.238c-.186-1.47-.169-2.967-.248-4.533" transform="translate(-155.456 -231.802)" fill="#e61e21"/>
      <path id="Path_37403" data-name="Path 37403" d="M443.925,571.932a4.211,4.211,0,0,1,3.009,2.545,4.861,4.861,0,0,1-4.2,6.739c-2.033.207-4.1.122-6.148.134-.624,0-.88-.357-.88-1.094q-.005-4.885,0-9.77,0-2.776,0-5.551c0-.891.266-1.16,1.168-1.148,1.774.024,3.554-.022,5.319.122a4.178,4.178,0,0,1,3.853,5.426,3.907,3.907,0,0,1-2.117,2.6m-5.858,7.4c1.5,0,2.964.1,4.405-.032a2.472,2.472,0,0,0,2.22-1.978,2.973,2.973,0,0,0-2.6-3.954c-1.149-.146-2.325-.068-3.487-.128-.484-.025-.585.161-.579.607.023,1.665.006,3.331.008,5,0,.179.025.359.034.488m0-7.947c1.263-.057,2.485-.021,3.677-.193a2.514,2.514,0,0,0,2-2.748,2.265,2.265,0,0,0-1.855-2.577,36.6,36.6,0,0,0-3.822-.232Z" transform="translate(-387.295 -501.151)" fill="#fff"/>
      <path id="Path_37404" data-name="Path 37404" d="M121.888,572.586q0-3.777,0-7.554c0-1.02.236-1.262,1.235-1.251,1.719.019,3.448-.048,5.156.1a7.27,7.27,0,0,1,7.04,7.048,11.377,11.377,0,0,1-1.074,6.643,6.5,6.5,0,0,1-5.111,3.507,63.671,63.671,0,0,1-6.363.261c-.612.014-.878-.344-.879-1.037-.007-2.574,0-5.147,0-7.72Zm2.4,6.643c1.306,0,2.583.1,3.839-.022a4.75,4.75,0,0,0,4.359-3.614,10.555,10.555,0,0,0,.117-5.75,5.094,5.094,0,0,0-3.352-3.77c-1.608-.565-3.277-.341-4.962-.374Z" transform="translate(-108.346 -501.146)" fill="#fff"/>
      <path id="Path_37405" data-name="Path 37405" d="M390.349,166.725a5.638,5.638,0,1,1-5.671-5.636,5.67,5.67,0,0,1,5.671,5.636" transform="translate(-336.96 -143.192)" fill="#ffcc03"/>
      <path id="Path_37406" data-name="Path 37406" d="M275.577,569.038c0-1.888.019-3.776-.012-5.663-.009-.542.226-.733.7-.768l.111-.009c1.37-.122,1.543.033,1.543,1.385,0,3.2-.017,6.4.013,9.606a7.762,7.762,0,0,0,.293,2.186,3.947,3.947,0,0,0,4.61,2.664c2.314-.3,3.581-1.791,3.612-4.4.042-3.5.017-7,.021-10.494,0-.8.08-.884.861-.947.11-.009.222-.008.333-.008,1.039,0,1.151.11,1.151,1.124,0,3.22.022,6.441-.014,9.661a11.531,11.531,0,0,1-.315,2.687,5.407,5.407,0,0,1-3.706,4.011,8.4,8.4,0,0,1-5.131.081,5.644,5.644,0,0,1-4.046-5.506c-.052-1.868-.01-3.738-.01-5.607h-.014" transform="translate(-244.95 -500.065)" fill="#fff"/>
      <path id="Path_37407" data-name="Path 37407" d="M571.359,569.124c0-1.888.017-3.776-.011-5.663-.007-.5.187-.715.651-.754.092-.008.184-.018.276-.023,1.307-.068,1.426.044,1.426,1.342,0,3.22-.017,6.441.013,9.661a7.726,7.726,0,0,0,.294,2.186,3.948,3.948,0,0,0,4.614,2.658c2.3-.3,3.57-1.779,3.605-4.352.047-3.46.013-6.922.032-10.383,0-.336-.218-.879.265-.961a7.706,7.706,0,0,1,1.892.048c.07.006.168.278.168.427-.009,3.812.106,7.631-.087,11.434-.176,3.471-2.316,5.46-5.782,5.81a7.768,7.768,0,0,1-3.864-.517,5.58,5.58,0,0,1-3.46-5.3c-.092-1.865-.018-3.738-.018-5.607h-.013" transform="translate(-507.869 -500.156)" fill="#fff"/>
      <path id="Path_37408" data-name="Path 37408" d="M734.826,571.236v.59c0,2.517-.018,5.034.013,7.551.008.591-.236.8-.76.835-.092.005-.184.014-.277.017-1.226.038-1.335-.062-1.335-1.262q0-7.8,0-15.6c0-.764.083-.853.834-.924l.055,0c1.314-.1,1.47.048,1.47,1.344v6.757a3.082,3.082,0,0,0,.326-.292q2.831-3.562,5.655-7.13a2.242,2.242,0,0,1,2.507-.538.621.621,0,0,1,.169.581,4.453,4.453,0,0,1-.651.956q-2.583,3.119-5.18,6.227c-.093.112-.175.234-.288.385l2.857,3.819c1.1,1.466,2.208,2.922,3.282,4.405a3.96,3.96,0,0,1,.371.982,6.811,6.811,0,0,1-1.031.287,1.956,1.956,0,0,1-2-.955c-1.85-2.633-3.785-5.205-5.689-7.8-.064-.087-.133-.17-.2-.256l-.128.027" transform="translate(-651.091 -499.909)" fill="#fff"/>
      <path id="Path_37409" data-name="Path 37409" d="M2.389,573.113v6.3h.626q2.941,0,5.882,0c.716,0,.879.177.886.939s-.166.971-.854.972q-3.912,0-7.824,0c-.822,0-1.1-.279-1.1-1.1q0-7.691,0-15.382c0-.817.284-1.089,1.116-1.09q3.884-.005,7.769,0c.623,0,.791.218.788.981,0,.713-.179.932-.782.933-1.942,0-3.884,0-5.827,0H2.408v5.5c.184.009.38.028.575.028,1.628,0,3.255,0,4.883,0,.683,0,.823.177.822,1,0,.769-.131.917-.829.919q-2.414,0-4.828,0H2.389" transform="translate(0 -501.12)" fill="#fff"/>
      <path id="Path_37410" data-name="Path 37410" d="M455.311,250.249a11.441,11.441,0,0,1,3.165,5.73,16.819,16.819,0,0,1,.171,2.481,21.123,21.123,0,0,1-1.408,8.068,18.265,18.265,0,0,1-3.38,5.6,14.289,14.289,0,0,1-1.621,1.638,1.776,1.776,0,0,1-.608.229l-.1-.135c.505-.873,1.019-1.742,1.514-2.621a26.582,26.582,0,0,0,2.149-5.21,3.64,3.64,0,0,0,.053-.991c.007-.426-.032-.854.007-1.276a17.553,17.553,0,0,0-1.453-7.6,15.41,15.41,0,0,0-1.2-2.114c-.072-.13-.125-.377-.055-.465.886-1.114,1.8-2.208,2.7-3.306a.077.077,0,0,1,.057-.024" transform="translate(-401.37 -222.446)" fill="#ffcc03"/>
      <path id="Path_37411" data-name="Path 37411" d="M449.313,18.635A9.318,9.318,0,1,1,458.567,9.3a9.331,9.331,0,0,1-9.254,9.332" transform="translate(-391.068 0)" fill="#8ebc38"/>
      <path id="Path_37412" data-name="Path 37412" d="M487.646,184.547a2.457,2.457,0,0,0,.485-.261,35.51,35.51,0,0,0,4.454-4.851,23.787,23.787,0,0,0,3.621-7.241,26.431,26.431,0,0,0,1-5.088,24.542,24.542,0,0,0-.256-7.834,34.339,34.339,0,0,0-1.651-5.038c-.146-.408-.156-.625.216-.913,1.536-1.188,3.044-2.41,4.55-3.636.309-.252.455-.2.7.105a10.906,10.906,0,0,1,2.216,6.284,53.335,53.335,0,0,1-.317,7c-.1,1.417-.283,2.829-.474,4.238a7.3,7.3,0,0,1-.443,1.812c-.773,1.856-1.535,3.723-2.446,5.512a13.094,13.094,0,0,1-1.97,2.729,52.108,52.108,0,0,1-4.061,4.169,34.649,34.649,0,0,1-3.973,2.9,4.56,4.56,0,0,1-1.471.362l-.178-.242" transform="translate(-433.47 -132.913)" fill="#8ebc38"/>
      <path id="Path_37413" data-name="Path 37413" d="M308.021,59.931a2.367,2.367,0,0,1,.342-.417,11.39,11.39,0,0,1,4.362-1.965c1.4-.342,2.8-.682,4.214-.943,1.4-.257,2.811-.41,4.217-.614.355-.052.507.066.5.444-.018.832-.022,1.666,0,2.5.011.406-.169.528-.531.5-.938-.085-1.876-.174-2.815-.252a26.055,26.055,0,0,0-6.073.285c-1.186.179-2.37.368-3.555.547-.192.029-.387.032-.581.047l-.079-.126" transform="translate(-273.801 -49.761)" fill="#8ebc38"/>
      <path id="Path_37414" data-name="Path 37414" d="M286.853,118.9c1.848-1.085,12.494-1.869,13.124-.89-.9.2-1.766.408-2.634.593-1.277.273-2.584.444-3.829.821-1.3.394-2.539.981-3.8,1.484-.154.061-.311.115-.465.176-1,.4-1.008.406-1.523-.535-.292-.533-.567-1.074-.869-1.649" transform="translate(-254.984 -104.506)" fill="#e61e21"/>
      <path id="Path_37415" data-name="Path 37415" d="M296.776,214.842a18.024,18.024,0,0,1,7.936-3.546c0,.563.023,1.105-.02,1.642-.008.1-.268.254-.422.268a31.246,31.246,0,0,0-7.029,1.552,3.249,3.249,0,0,1-.465.084" transform="translate(-263.805 -187.821)" fill="#ffcc03"/>
    </g>
  </g>
</svg>
