<svg id="European_blockchain_center_logo" data-name="European blockchain center logo" xmlns="http://www.w3.org/2000/svg" width="249.689" height="120.729" viewBox="0 0 249.689 120.729">
  <rect id="Rectangle_17476" data-name="Rectangle 17476" width="249.689" height="120.729" rx="9" transform="translate(0)" fill="#060707"/>
  <g id="Brand_EBC-Logo_default_-1-line" data-name="Brand/EBC-Logo/default/-1-line" transform="translate(19.396 45.751)">
    <g id="Group-35" transform="translate(0 0)">
      <path id="Fill-2" d="M85.966,31.842a2.887,2.887,0,0,1-.654-2.036V25.12h1.179v4.315a2.514,2.514,0,0,0,.429,1.62,1.638,1.638,0,0,0,1.339.519,1.83,1.83,0,0,0,1.557-.749,3.42,3.42,0,0,0,.558-2.081V25.12h1.179v7.273h-1.14V30.741h-.038a2.979,2.979,0,0,1-1.019,1.338,2.56,2.56,0,0,1-1.518.467,2.426,2.426,0,0,1-1.871-.7" transform="translate(-42.694 -12.571)" fill="#f1f1f1" fill-rule="evenodd"/>
      <path id="Fill-4" d="M105.847,25.433a2.366,2.366,0,0,1,.449,1.543,4.931,4.931,0,0,1-.032.532,4.377,4.377,0,0,1-.083.506l-1.1.141a4.77,4.77,0,0,0,.083-.532,4.866,4.866,0,0,0,.032-.505,1.676,1.676,0,0,0-.269-1.031.923.923,0,0,0-.781-.352,1.337,1.337,0,0,0-1.2.787,4.358,4.358,0,0,0-.443,2.132v3.623h-1.178V25h1.153v1.588h.025a2.848,2.848,0,0,1,.827-1.261,1.877,1.877,0,0,1,1.236-.442,1.566,1.566,0,0,1,1.281.544" transform="translate(-50.707 -12.456)" fill="#f1f1f1" fill-rule="evenodd"/>
      <path id="Fill-6" d="M117.876,30.676a3.3,3.3,0,0,0,.564-2.074,3.26,3.26,0,0,0-.577-2.055,1.92,1.92,0,0,0-1.6-.736,1.983,1.983,0,0,0-1.64.717,3.2,3.2,0,0,0-.576,2.049,3.3,3.3,0,0,0,.576,2.081,2.186,2.186,0,0,0,3.255.019m-4.126.717a4,4,0,0,1-.91-2.778,3.973,3.973,0,0,1,.935-2.765,3.184,3.184,0,0,1,2.486-1.037,3.144,3.144,0,0,1,2.46,1.012,3.965,3.965,0,0,1,.91,2.753,4.068,4.068,0,0,1-.91,2.81,3.552,3.552,0,0,1-4.972.006" transform="translate(-56.47 -12.417)" fill="#f1f1f1" fill-rule="evenodd"/>
      <path id="Fill-8" d="M134.048,26.56a1.81,1.81,0,0,0-1.525-.749,2,2,0,0,0-1.647.743,3.188,3.188,0,0,0-.6,2.049,3.152,3.152,0,0,0,.609,2.036,1.99,1.99,0,0,0,1.634.756,1.812,1.812,0,0,0,1.538-.736,3.4,3.4,0,0,0,.551-2.068,3.3,3.3,0,0,0-.564-2.029Zm-4.934,8.047V24.966h1.14V26.63h.051a3.023,3.023,0,0,1,1.019-1.344,2.559,2.559,0,0,1,1.532-.474,2.6,2.6,0,0,1,2.153,1.031,4.336,4.336,0,0,1,.807,2.746,4.344,4.344,0,0,1-.827,2.766,2.787,2.787,0,0,1-3.665.621,2.832,2.832,0,0,1-.993-1.236h-.038v3.867Z" transform="translate(-64.614 -12.417)" fill="#f1f1f1" fill-rule="evenodd"/>
      <path id="Fill-10" d="M148.846,26.073a1.877,1.877,0,0,0-1.038-.288,1.978,1.978,0,0,0-1.486.6,2.637,2.637,0,0,0-.679,1.633h4.138a3.506,3.506,0,0,0-.07-.621,2.356,2.356,0,0,0-.173-.506,1.882,1.882,0,0,0-.692-.813m-3.479,5.307a3.927,3.927,0,0,1-.942-2.766,3.96,3.96,0,0,1,.948-2.74,3.129,3.129,0,0,1,2.447-1.063,3.046,3.046,0,0,1,1.6.416,2.815,2.815,0,0,1,1.077,1.184,4.326,4.326,0,0,1,.365,1.095,6.7,6.7,0,0,1,.122,1.325h-5.369a2.933,2.933,0,0,0,.673,1.889,2.1,2.1,0,0,0,1.646.7,2.171,2.171,0,0,0,1.326-.384,2.65,2.65,0,0,0,.84-1.2l.987.346a3.458,3.458,0,0,1-1.23,1.651,3.632,3.632,0,0,1-4.492-.448" transform="translate(-72.277 -12.417)" fill="#f1f1f1" fill-rule="evenodd"/>
      <path id="Fill-12" d="M161.128,31.176a1.455,1.455,0,0,0,1.019.333,1.985,1.985,0,0,0,1.614-.73,2.96,2.96,0,0,0,.6-1.946v-.55a1.222,1.222,0,0,1-.41.224,6.1,6.1,0,0,1-.756.2l-.961.179a2.258,2.258,0,0,0-1.134.454,1.375,1.375,0,0,0,.026,1.837m3.607.756a1.568,1.568,0,0,1-.41-1.178V30.7h-.038a2.711,2.711,0,0,1-.98,1.261,2.648,2.648,0,0,1-1.531.442,2.33,2.33,0,0,1-1.621-.538,1.884,1.884,0,0,1-.6-1.472,2.243,2.243,0,0,1,.167-.89,1.9,1.9,0,0,1,.5-.685,2.268,2.268,0,0,1,.73-.4,6.255,6.255,0,0,1,1.064-.263l1.051-.166a2.325,2.325,0,0,0,.98-.333.766.766,0,0,0,.288-.653,1.109,1.109,0,0,0-.4-.9,1.646,1.646,0,0,0-1.089-.333,1.847,1.847,0,0,0-1.249.4,2.46,2.46,0,0,0-.7,1.261l-1.1-.231a3.31,3.31,0,0,1,1.109-1.773,3.04,3.04,0,0,1,1.942-.621,2.369,2.369,0,0,1,2.627,2.612v3.009a1.174,1.174,0,0,0,.185.762.87.87,0,0,0,.673.211c.051,0,.1,0,.141-.007l.179-.019v.845a.988.988,0,0,1-.3.077,3.294,3.294,0,0,1-.417.025,1.666,1.666,0,0,1-1.2-.4" transform="translate(-79.85 -12.417)" fill="#f1f1f1" fill-rule="evenodd"/>
      <path id="Fill-14" d="M175.722,24.966h1.14v1.69h.038a3.116,3.116,0,0,1,1.057-1.357,2.6,2.6,0,0,1,1.544-.487,2.3,2.3,0,0,1,1.858.756,3.32,3.32,0,0,1,.64,2.2v4.468h-1.165V28.064a2.84,2.84,0,0,0-.417-1.728,1.589,1.589,0,0,0-1.339-.538,1.893,1.893,0,0,0-1.6.768,3.417,3.417,0,0,0-.583,2.113v3.559h-1.179Z" transform="translate(-87.939 -12.417)" fill="#f1f1f1" fill-rule="evenodd"/>
      <path id="Fill-16" d="M202.935,25.576a3.376,3.376,0,0,0-1.909-.435h-2.537v3.585H201.2A2.917,2.917,0,0,0,203,28.284a1.655,1.655,0,0,0,.564-1.389,1.5,1.5,0,0,0-.627-1.319Zm-.288-4.309a2.815,2.815,0,0,0-1.673-.4h-2.485v3.329h2.357a3.034,3.034,0,0,0,1.775-.416,1.488,1.488,0,0,0,.57-1.287,1.422,1.422,0,0,0-.545-1.223Zm-5.376,8.483V19.84h3.652a4.519,4.519,0,0,1,2.6.614,2.1,2.1,0,0,1,.871,1.831,2.169,2.169,0,0,1-.525,1.466,2.73,2.73,0,0,1-1.461.839V24.6a3.038,3.038,0,0,1,1.743.82,2.18,2.18,0,0,1,.627,1.588,2.443,2.443,0,0,1-.884,2.049,4.189,4.189,0,0,1-2.614.691Z" transform="translate(-98.723 -9.929)" fill="#f1f1f1" fill-rule="evenodd"/>
      <path id="Fill-18" d="M215.1,29.224h1.179V18.789H215.1Z" transform="translate(-107.646 -9.403)" fill="#f1f1f1" fill-rule="evenodd"/>
      <path id="Fill-20" d="M225.21,30.676a3.292,3.292,0,0,0,.564-2.074,3.26,3.26,0,0,0-.577-2.055,1.92,1.92,0,0,0-1.6-.736,1.983,1.983,0,0,0-1.64.717,3.2,3.2,0,0,0-.577,2.049,3.3,3.3,0,0,0,.577,2.081,2.185,2.185,0,0,0,3.254.019m-4.125.717a4,4,0,0,1-.91-2.778,3.973,3.973,0,0,1,.936-2.765,3.184,3.184,0,0,1,2.486-1.037,3.144,3.144,0,0,1,2.46,1.012,3.966,3.966,0,0,1,.91,2.753,4.068,4.068,0,0,1-.91,2.81,3.552,3.552,0,0,1-4.972.006" transform="translate(-110.185 -12.417)" fill="#f1f1f1" fill-rule="evenodd"/>
      <path id="Fill-21" d="M237.471,26.566a3.121,3.121,0,0,0-.6,2.023,3.166,3.166,0,0,0,.608,2.055,2.251,2.251,0,0,0,3,.32,2.74,2.74,0,0,0,.8-1.338l1.064.307a3.464,3.464,0,0,1-5.76,1.466,3.981,3.981,0,0,1-.916-2.785,3.922,3.922,0,0,1,.961-2.746,3.235,3.235,0,0,1,2.512-1.057,3,3,0,0,1,2.037.7,3.738,3.738,0,0,1,1.127,2.017l-1.14.256a2.775,2.775,0,0,0-.724-1.46,1.835,1.835,0,0,0-1.326-.5,2,2,0,0,0-1.64.743" transform="translate(-117.937 -12.417)" fill="#f1f1f1" fill-rule="evenodd"/>
      <path id="Fill-22" d="M256.539,29.224l-2.422-4.033-1.448,1.447v2.586H251.49V18.789h1.179V25.46l3.421-3.508h1.4l-2.512,2.6,2.87,4.673Z" transform="translate(-125.857 -9.403)" fill="#f1f1f1" fill-rule="evenodd"/>
      <path id="Fill-23" d="M266.172,26.566a3.123,3.123,0,0,0-.6,2.023,3.169,3.169,0,0,0,.608,2.055,2.251,2.251,0,0,0,3,.32,2.733,2.733,0,0,0,.8-1.338l1.064.307a3.464,3.464,0,0,1-5.759,1.466,3.981,3.981,0,0,1-.917-2.785,3.924,3.924,0,0,1,.961-2.746,3.236,3.236,0,0,1,2.511-1.057,3,3,0,0,1,2.038.7A3.742,3.742,0,0,1,271,27.527l-1.141.256a2.771,2.771,0,0,0-.723-1.46,1.835,1.835,0,0,0-1.327-.5,2,2,0,0,0-1.64.743" transform="translate(-132.3 -12.417)" fill="#f1f1f1" fill-rule="evenodd"/>
      <path id="Fill-24" d="M280.191,18.789h1.179v4.789h.026a3.129,3.129,0,0,1,1.057-1.312,2.6,2.6,0,0,1,1.518-.467,2.3,2.3,0,0,1,1.858.756,3.321,3.321,0,0,1,.64,2.2v4.468H285.3V25.05a2.842,2.842,0,0,0-.417-1.729,1.589,1.589,0,0,0-1.339-.538,1.9,1.9,0,0,0-1.6.768,3.42,3.42,0,0,0-.583,2.113v3.559h-1.179Z" transform="translate(-140.22 -9.403)" fill="#f1f1f1" fill-rule="evenodd"/>
      <path id="Fill-25" d="M296.929,31.176a1.456,1.456,0,0,0,1.019.333,1.986,1.986,0,0,0,1.615-.73,2.96,2.96,0,0,0,.6-1.946v-.55a1.219,1.219,0,0,1-.41.224,6.139,6.139,0,0,1-.756.2l-.961.179a2.258,2.258,0,0,0-1.134.454,1.375,1.375,0,0,0,.026,1.837m3.607.756a1.568,1.568,0,0,1-.41-1.178V30.7h-.038a2.718,2.718,0,0,1-.98,1.261,2.651,2.651,0,0,1-1.532.442,2.331,2.331,0,0,1-1.621-.538,1.883,1.883,0,0,1-.6-1.472,2.252,2.252,0,0,1,.166-.89,1.905,1.905,0,0,1,.5-.685,2.268,2.268,0,0,1,.73-.4,6.249,6.249,0,0,1,1.063-.263l1.051-.166a2.33,2.33,0,0,0,.981-.333.766.766,0,0,0,.288-.653,1.109,1.109,0,0,0-.4-.9,1.644,1.644,0,0,0-1.089-.333,1.847,1.847,0,0,0-1.249.4,2.456,2.456,0,0,0-.7,1.261l-1.1-.231a3.3,3.3,0,0,1,1.109-1.773,3.039,3.039,0,0,1,1.941-.621,2.369,2.369,0,0,1,2.627,2.612v3.009a1.174,1.174,0,0,0,.186.762.869.869,0,0,0,.673.211c.051,0,.1,0,.141-.007l.179-.019v.845a.988.988,0,0,1-.3.077,3.294,3.294,0,0,1-.417.025,1.667,1.667,0,0,1-1.2-.4" transform="translate(-147.811 -12.417)" fill="#f1f1f1" fill-rule="evenodd"/>
      <path id="Fill-26" d="M311.484,29.224h1.166V21.951h-1.166Zm-.064-9.078h1.307V18.789H311.42Z" transform="translate(-155.848 -9.403)" fill="#f1f1f1" fill-rule="evenodd"/>
      <path id="Fill-27" d="M317.415,24.966h1.141v1.69h.038a3.117,3.117,0,0,1,1.057-1.357,2.6,2.6,0,0,1,1.544-.487,2.3,2.3,0,0,1,1.858.756,3.32,3.32,0,0,1,.64,2.2v4.468h-1.165V28.064a2.84,2.84,0,0,0-.417-1.728,1.589,1.589,0,0,0-1.339-.538,1.893,1.893,0,0,0-1.6.768,3.417,3.417,0,0,0-.583,2.113v3.559h-1.179Z" transform="translate(-158.848 -12.417)" fill="#f1f1f1" fill-rule="evenodd"/>
      <path id="Fill-28" d="M339.245,28.405a5.238,5.238,0,0,1-1.23-3.675,5.473,5.473,0,0,1,1.282-3.79,4.3,4.3,0,0,1,3.37-1.434,4.061,4.061,0,0,1,2.742.935,4.6,4.6,0,0,1,1.448,2.65l-1.192.243a3.611,3.611,0,0,0-1.038-2.029,2.824,2.824,0,0,0-1.973-.7,3.069,3.069,0,0,0-2.5,1.082,4.615,4.615,0,0,0-.9,3.028,4.271,4.271,0,0,0,.9,2.881,3.085,3.085,0,0,0,2.467,1.05,3.033,3.033,0,0,0,1.992-.627,3.831,3.831,0,0,0,1.147-1.959l1.141.32a4.538,4.538,0,0,1-1.551,2.5,4.834,4.834,0,0,1-6.112-.474" transform="translate(-169.158 -9.762)" fill="#f1f1f1" fill-rule="evenodd"/>
      <path id="Fill-29" d="M362.055,26.073a1.875,1.875,0,0,0-1.038-.288,1.979,1.979,0,0,0-1.487.6,2.639,2.639,0,0,0-.678,1.633h4.138a3.5,3.5,0,0,0-.071-.621,2.3,2.3,0,0,0-.173-.506,1.879,1.879,0,0,0-.692-.813m-3.478,5.307a3.927,3.927,0,0,1-.942-2.766,3.962,3.962,0,0,1,.948-2.74,3.131,3.131,0,0,1,2.447-1.063,3.044,3.044,0,0,1,1.6.416,2.814,2.814,0,0,1,1.077,1.184,4.326,4.326,0,0,1,.365,1.095,6.733,6.733,0,0,1,.122,1.325h-5.369a2.936,2.936,0,0,0,.673,1.889,2.1,2.1,0,0,0,1.647.7,2.173,2.173,0,0,0,1.326-.384,2.65,2.65,0,0,0,.839-1.2l.987.346a3.455,3.455,0,0,1-1.23,1.651,3.631,3.631,0,0,1-4.491-.448" transform="translate(-178.976 -12.417)" fill="#f1f1f1" fill-rule="evenodd"/>
      <path id="Fill-30" d="M373.421,24.966h1.141v1.69h.038a3.114,3.114,0,0,1,1.058-1.357,2.6,2.6,0,0,1,1.544-.487,2.3,2.3,0,0,1,1.858.756,3.32,3.32,0,0,1,.64,2.2v4.468h-1.166V28.064a2.84,2.84,0,0,0-.417-1.728,1.589,1.589,0,0,0-1.339-.538,1.893,1.893,0,0,0-1.6.768,3.42,3.42,0,0,0-.583,2.113v3.559h-1.179Z" transform="translate(-186.876 -12.417)" fill="#f1f1f1" fill-rule="evenodd"/>
      <path id="Fill-31" d="M391.93,29.405a2.584,2.584,0,0,0,.455-.09v.922a3.652,3.652,0,0,1-.6.147,4.452,4.452,0,0,1-.666.045,2.126,2.126,0,0,1-1.6-.538A2.32,2.32,0,0,1,389,28.228v-4.3H387.49V23h1.525V21.467l1.153-.576V23h2.23v.922h-2.23v4.161a1.522,1.522,0,0,0,.282,1.037,1.241,1.241,0,0,0,.949.308,4.95,4.95,0,0,0,.532-.026" transform="translate(-193.917 -10.455)" fill="#f1f1f1" fill-rule="evenodd"/>
      <path id="Fill-32" d="M402.681,26.073a1.877,1.877,0,0,0-1.038-.288,1.979,1.979,0,0,0-1.486.6,2.637,2.637,0,0,0-.679,1.633h4.139a3.552,3.552,0,0,0-.071-.621,2.381,2.381,0,0,0-.172-.506,1.884,1.884,0,0,0-.692-.813M399.2,31.381a3.927,3.927,0,0,1-.942-2.766,3.96,3.96,0,0,1,.948-2.74,3.13,3.13,0,0,1,2.447-1.063,3.046,3.046,0,0,1,1.6.416,2.815,2.815,0,0,1,1.077,1.184,4.327,4.327,0,0,1,.365,1.095,6.7,6.7,0,0,1,.122,1.325h-5.369a2.936,2.936,0,0,0,.673,1.889,2.1,2.1,0,0,0,1.647.7,2.174,2.174,0,0,0,1.326-.384,2.65,2.65,0,0,0,.839-1.2l.987.346a3.454,3.454,0,0,1-1.23,1.651,3.632,3.632,0,0,1-4.491-.448" transform="translate(-199.307 -12.417)" fill="#f1f1f1" fill-rule="evenodd"/>
      <path id="Fill-33" d="M418.57,25.433a2.366,2.366,0,0,1,.448,1.543,4.921,4.921,0,0,1-.031.532,4.372,4.372,0,0,1-.083.506l-1.1.141a4.771,4.771,0,0,0,.083-.532,5.006,5.006,0,0,0,.032-.505,1.675,1.675,0,0,0-.269-1.031.923.923,0,0,0-.781-.352,1.337,1.337,0,0,0-1.2.787,4.359,4.359,0,0,0-.442,2.132v3.623h-1.18V25H415.2v1.588h.026a2.842,2.842,0,0,1,.826-1.261,1.875,1.875,0,0,1,1.236-.442,1.566,1.566,0,0,1,1.281.544" transform="translate(-207.207 -12.456)" fill="#f1f1f1" fill-rule="evenodd"/>
      <path id="Fill-34" d="M22.252,15.607l4.74-4.665,1.733,5.331-4.74,4.665Zm-.753-.65-6.2-.934,4.616-4.543,6.2.934Zm-5.757,6.58-1.028-6.183,5.75,2.983,1.028,6.183Zm.981,7.275-5.905-3.063,4.539-3.295,5.905,3.063ZM6.638,24.485,7.7,18.1l5.567-2.888L12.2,21.6Zm-1.02.089L1.079,21.279l1.091-6.558,4.539,3.295ZM2.08,10.358l6.407-.964,4.469,4.4-6.407.964ZM3.414,4.085l6.579-.99L8.26,8.426l-6.579.99Zm10.7-2.423,2.9,5.791-2.8,5.605-2.9-5.79ZM20.5.991l2.975,5.946h-5.61L14.891.991Zm9.358,15.558L27.611,9.637l-3.762-.566.9-1.8L21.114,0H13.84l-1.7,3.4L10.7,1.986,2.66,3.2.413,10.108l2.711,2.668-1.79.929L0,21.721l5.885,4.272,3.377-1.752.331,1.988,7.218,3.744L22.693,25.7l-.624-3.751,1.995.3Z" transform="translate(0 0)" fill="#f1f1f1" fill-rule="evenodd"/>
      <path id="Fill-1" d="M69.7,19.84h6.458v1.024H70.915v3.265h4.908v.986H70.915v3.61h5.5V29.75H69.7Z" transform="translate(-34.879 -9.929)" fill="#f1f1f1" fill-rule="evenodd"/>
    </g>
  </g>
</svg>
