<svg xmlns="http://www.w3.org/2000/svg" xmlns:xlink="http://www.w3.org/1999/xlink" width="249.689" height="120.729" viewBox="0 0 249.689 120.729">
  <defs>
    <clipPath id="clip-path">
      <path id="Path_42057" data-name="Path 42057" d="M22.812,40.335h4.6v-23.4h-4.6Zm-.586-29.718a2.913,2.913,0,0,0,5.811,0,2.911,2.911,0,0,0-5.811,0" transform="translate(-22.226 -7.89)" fill="none" stroke="rgba(0,0,0,0)" stroke-width="1"/>
    </clipPath>
    <linearGradient id="linear-gradient" x1="-5.702" y1="1.016" x2="-5.445" y2="1.016" gradientUnits="objectBoundingBox">
      <stop offset="0" stop-color="#22b3d7"/>
      <stop offset="0.438" stop-color="#73d3eb"/>
      <stop offset="0.724" stop-color="#73d3eb"/>
      <stop offset="1" stop-color="#22b3d7"/>
    </linearGradient>
    <clipPath id="clip-path-2">
      <path id="Path_42058" data-name="Path 42058" d="M34.41,12.764h5.965c4.7,0,6.625,2.528,6.625,6.063s-1.922,6.138-6.564,6.138H34.41ZM29.66,8.728v31.2h4.75V28.955h6.457c7.3,0,10.914-4.371,10.914-10.129s-3.581-10.1-10.9-10.1Z" transform="translate(-29.66 -8.728)" fill="none" stroke="rgba(0,0,0,0)" stroke-width="1"/>
    </clipPath>
    <linearGradient id="linear-gradient-2" x1="-1.999" y1="1.017" x2="-1.932" y2="1.017" xlink:href="#linear-gradient"/>
    <clipPath id="clip-path-3">
      <rect id="Rectangle_22379" data-name="Rectangle 22379" width="4.596" height="31.195" fill="none" stroke="rgba(0,0,0,0)" stroke-width="1"/>
    </clipPath>
    <linearGradient id="linear-gradient-3" x1="-15.313" y1="1.017" x2="-14.989" y2="1.017" xlink:href="#linear-gradient"/>
    <clipPath id="clip-path-4">
      <path id="Path_42059" data-name="Path 42059" d="M64.24,17.518c3.566,0,5.9,2.618,5.917,6.2H57.89a6.313,6.313,0,0,1,6.349-6.2M53.294,25.91c0,7.266,4.274,12.018,11.236,12.018,5.149,0,8.793-2.512,9.838-6.32l-4.35-.778c-.829,2.209-2.828,3.336-5.44,3.336-3.936,0-6.579-2.53-6.7-7.038H74.66V25.515c0-8.454-5.1-11.761-10.452-11.761-6.579,0-10.914,4.966-10.914,12.156" transform="translate(-53.294 -13.754)" fill="none" stroke="rgba(0,0,0,0)" stroke-width="1"/>
    </clipPath>
    <linearGradient id="linear-gradient-4" x1="-3.719" y1="1.002" x2="-3.649" y2="1.002" xlink:href="#linear-gradient"/>
    <clipPath id="clip-path-5">
      <path id="Path_42060" data-name="Path 42060" d="M75.315,17.869h-.292V14.06H70.611v23.4h4.6V23.565c0-3.733,2.306-5.865,5.5-5.865,3.119,0,5.009,2.026,5.009,5.422V37.457h4.6V22.575c0-5.789-3.214-8.821-8.04-8.821-3.551,0-5.872,1.631-6.964,4.115" transform="translate(-70.611 -13.754)" fill="none" stroke="rgba(0,0,0,0)" stroke-width="1"/>
    </clipPath>
    <linearGradient id="linear-gradient-5" x1="-5.342" y1="1.022" x2="-5.266" y2="1.022" xlink:href="#linear-gradient"/>
    <clipPath id="clip-path-6">
      <path id="Path_42061" data-name="Path 42061" d="M91.29,30.906c0-2.437,2.183-3.305,4.842-3.655,1.491-.2,5.027-.595,5.687-1.249v3.016c0,2.773-2.229,5.3-6.057,5.3-2.6,0-4.472-1.157-4.472-3.412m-3.782-11.18,4.32.974c.677-1.659,2.4-3.259,5.488-3.259,2.967,0,4.489,1.539,4.489,4.189v.106c0,1.661-1.722,1.631-5.965,2.117-4.472.519-9.054,1.676-9.054,6.992,0,4.6,3.49,7.129,7.977,7.129,3.906,0,6.1-1.965,6.979-3.717h.185v3.2h4.489V21.919c0-6.809-5.412-8.165-9.161-8.165-4.274,0-8.208,1.707-9.747,5.972" transform="translate(-86.786 -13.754)" fill="none" stroke="rgba(0,0,0,0)" stroke-width="1"/>
    </clipPath>
    <linearGradient id="linear-gradient-6" x1="-6.591" y1="1" x2="-6.515" y2="1" xlink:href="#linear-gradient"/>
    <clipPath id="clip-path-7">
      <path id="Path_42062" data-name="Path 42062" d="M20.037,6.217h0M7.709,25.369c.073-.179.182-.4.255-.611a3.531,3.531,0,0,0-.58-3.666l3.3-4.276,4.641,9.595a6.858,6.858,0,0,0-1.7,2.084Zm12.726-7.33a6.545,6.545,0,0,0,4.677-4.24l5.512.179A3.9,3.9,0,0,0,31.854,16.6l-8.847,9.413a5.3,5.3,0,0,0-2.935-1.257h-.289a.34.34,0,0,1-.183.036Zm-8.918-2.263,2.973-3.882.869.288a8.992,8.992,0,0,0-.362.862,3.871,3.871,0,0,0,3.735,5.139,2.411,2.411,0,0,0,.507-.036l-.9,6.719a5.8,5.8,0,0,0-1.849.719Zm-2.32-4.6a4.756,4.756,0,0,0,.869-.826l3.517,1.221L11.045,14.84Zm10.84-4.958a5.452,5.452,0,0,0,3.044-1.042l8.447,6.108a4.239,4.239,0,0,0-.8,1.618l-5.439-.143A3.883,3.883,0,0,0,21.123,8.7a6.765,6.765,0,0,0-5.185,2.587l-.76-.25,3.806-4.923a8.938,8.938,0,0,0,1.053.107M10.682,9.486a4.137,4.137,0,0,0,.255-.575,3.3,3.3,0,0,0,.18-1.149l6.272-2.874a2.19,2.19,0,0,0,.8.827L14.27,10.709ZM21.668,0a4.953,4.953,0,0,0-4.423,3.09,2.635,2.635,0,0,0-.109,1.042L10.9,7.007A2.292,2.292,0,0,0,8.615,5.714,5.466,5.466,0,0,0,3.976,8.876c-.762,1.832.145,3.377,2.1,3.45a4.666,4.666,0,0,0,2.139-.5l1.993,4.1L6.549,20.59A3.293,3.293,0,0,0,5.534,20.3c-1.995-.143-4.314,1.51-5.184,3.773-.908,2.336,0,4.528,2.138,4.744a5.363,5.363,0,0,0,4.532-2.3l6.018,3.271a3.128,3.128,0,0,0-.18.538c-.979,3.593.869,7.078,4.277,7.618,3.517.54,7.034-2.336,7.721-6.179a6.223,6.223,0,0,0-.978-4.78l8.991-9.7a5.694,5.694,0,0,0,2.248.647c2.937.143,5.474-1.869,5.619-4.385.145-2.408-1.993-4.311-4.712-4.347a5.857,5.857,0,0,0-3.661,1.257L23.843,4.42a3.406,3.406,0,0,0,.8-1.51C25,1.258,23.734,0,21.812,0Z" transform="translate(0)" fill="none" stroke="rgba(0,0,0,0)" stroke-width="1"/>
    </clipPath>
    <linearGradient id="linear-gradient-7" x1="0.134" y1="0.972" x2="0.161" y2="0.972" gradientUnits="objectBoundingBox">
      <stop offset="0" stop-color="#22b3d7"/>
      <stop offset="1" stop-color="#a9e7f7"/>
    </linearGradient>
  </defs>
  <g id="Iplena_Logo" data-name="Iplena Logo" transform="translate(-1052.717)">
    <rect id="Rectangle_17476" data-name="Rectangle 17476" width="249.689" height="120.729" rx="9" transform="translate(1052.717)" fill="#060707"/>
    <g id="Group_51489" data-name="Group 51489" transform="translate(1103.056 38.003)">
      <g id="Group_51476" data-name="Group 51476" transform="translate(33.135 11.763)">
        <g id="Group_51475" data-name="Group 51475" clip-path="url(#clip-path)">
          <rect id="Rectangle_22376" data-name="Rectangle 22376" width="5.811" height="32.445" transform="translate(0 0)" stroke="rgba(0,0,0,0)" stroke-width="1" fill="url(#linear-gradient)"/>
        </g>
      </g>
      <g id="Group_51478" data-name="Group 51478" transform="translate(44.218 13.012)">
        <g id="Group_51477" data-name="Group 51477" clip-path="url(#clip-path-2)">
          <rect id="Rectangle_22377" data-name="Rectangle 22377" width="22.121" height="31.195" transform="translate(0 0)" stroke="rgba(0,0,0,0)" stroke-width="1" fill="url(#linear-gradient-2)"/>
        </g>
      </g>
      <g id="Group_51480" data-name="Group 51480" transform="translate(70.383 13.012)">
        <g id="Group_51479" data-name="Group 51479" clip-path="url(#clip-path-3)">
          <rect id="Rectangle_22378" data-name="Rectangle 22378" width="4.596" height="31.195" transform="translate(0)" stroke="rgba(0,0,0,0)" stroke-width="1" fill="url(#linear-gradient-3)"/>
        </g>
      </g>
      <g id="Group_51482" data-name="Group 51482" transform="translate(79.452 20.505)">
        <g id="Group_51481" data-name="Group 51481" clip-path="url(#clip-path-4)">
          <rect id="Rectangle_22380" data-name="Rectangle 22380" width="21.366" height="24.174" stroke="rgba(0,0,0,0)" stroke-width="1" fill="url(#linear-gradient-4)"/>
        </g>
      </g>
      <g id="Group_51484" data-name="Group 51484" transform="translate(105.268 20.505)">
        <g id="Group_51483" data-name="Group 51483" clip-path="url(#clip-path-5)">
          <rect id="Rectangle_22381" data-name="Rectangle 22381" width="19.707" height="23.703" transform="translate(0)" stroke="rgba(0,0,0,0)" stroke-width="1" fill="url(#linear-gradient-5)"/>
        </g>
      </g>
      <g id="Group_51486" data-name="Group 51486" transform="translate(129.382 20.505)">
        <g id="Group_51485" data-name="Group 51485" clip-path="url(#clip-path-6)">
          <rect id="Rectangle_22382" data-name="Rectangle 22382" width="19.63" height="24.22" stroke="rgba(0,0,0,0)" stroke-width="1" fill="url(#linear-gradient-6)"/>
        </g>
      </g>
      <g id="Group_51488" data-name="Group 51488" transform="translate(0)">
        <g id="Group_51487" data-name="Group 51487" clip-path="url(#clip-path-7)">
          <rect id="Rectangle_22383" data-name="Rectangle 22383" width="55.087" height="53.993" transform="translate(-17.157 9.509) rotate(-29.807)" stroke="rgba(0,0,0,0)" stroke-width="1" fill="url(#linear-gradient-7)"/>
        </g>
      </g>
    </g>
  </g>
</svg>
