<svg xmlns="http://www.w3.org/2000/svg" width="249.689" height="120.729" viewBox="0 0 249.689 120.729">
  <g id="roberto_cavali_logo" data-name="roberto cavali logo" transform="translate(0)">
    <rect id="Rectangle_17476" data-name="Rectangle 17476" width="249.689" height="120.729" rx="9" transform="translate(0)" fill="#060707"/>
    <path id="roberto-cavalli-vector-logo" d="M193.483,272.28a1.77,1.77,0,0,0-.807-.26h-1.355a1.012,1.012,0,0,0-.807.26,1.176,1.176,0,0,0-.259.951v23.788a1.374,1.374,0,0,0,.259.952,1.77,1.77,0,0,0,.807.259h1.355a1.012,1.012,0,0,0,.807-.259,1.176,1.176,0,0,0,.26-.952V273.232A2.485,2.485,0,0,0,193.483,272.28Zm-6.891-5.68h-1.355a1.012,1.012,0,0,0-.807.259,1.176,1.176,0,0,0-.26.952v29.208a1.374,1.374,0,0,0,.26.952,1.77,1.77,0,0,0,.807.259h1.355a1.012,1.012,0,0,0,.807-.259,1.176,1.176,0,0,0,.26-.952V267.84a1.374,1.374,0,0,0-.26-.952A1.826,1.826,0,0,0,186.592,266.6ZM59.148,276.057a6.131,6.131,0,0,0-5.94-4.181,4.7,4.7,0,0,0-3.258,1.211,2.42,2.42,0,0,0-.807.952c-.144.144-.144.259-.26.259v-6.487a1.375,1.375,0,0,0-.26-.952,1.114,1.114,0,0,0-.807-.259H46.462a1.012,1.012,0,0,0-.807.259,1.176,1.176,0,0,0-.26.952v17.848a23.219,23.219,0,0,0,1.211,8.65,6.454,6.454,0,0,0,6.228,4.066,6.757,6.757,0,0,0,6.228-4.181,25.489,25.489,0,0,0,1.355-9.054A28.233,28.233,0,0,0,59.148,276.057ZM55.342,293.79a3.107,3.107,0,0,1-5.132,0c-.952-1.355-1.355-3.921-1.355-8.1,0-4.988.4-7.7,1.355-9.054a3.28,3.28,0,0,1,2.566-1.355,3.075,3.075,0,0,1,2.566,1.355c.952,1.211,1.355,4.181,1.355,8.506C56.842,289.58,56.294,292.435,55.342,293.79Zm135.978-23.124h1.355a.928.928,0,0,0,1.067-1.067V267.84a1.374,1.374,0,0,0-.26-.952,1.77,1.77,0,0,0-.807-.26h-1.355a1.012,1.012,0,0,0-.807.26,1.176,1.176,0,0,0-.259.952V269.6a1.374,1.374,0,0,0,.259.952C190.773,270.665,191.061,270.81,191.321,270.665ZM75.5,289.724H74.286a1.012,1.012,0,0,0-.807.259,1.77,1.77,0,0,0-.259.807,6.028,6.028,0,0,1-1.1,2.97,3.28,3.28,0,0,1-2.566,1.355h-.144a3.56,3.56,0,0,1-2.71-1.355,8.838,8.838,0,0,1-1.211-3.777v-.663l.4-.4,9.313-6.747a2.9,2.9,0,0,0,.807-.952,4.648,4.648,0,0,0,.259-1.5,11.843,11.843,0,0,0-.663-3.662,6.528,6.528,0,0,0-6.343-4.065,6.885,6.885,0,0,0-6.343,4.181,30.921,30.921,0,0,0,0,18.107,6.815,6.815,0,0,0,12.571,0,14.955,14.955,0,0,0,.807-3.258,1.374,1.374,0,0,0-.259-.952c0-.2-.288-.346-.548-.346Zm-10.149-4.873c-.144-3.921.4-6.891,1.5-8.246a3.28,3.28,0,0,1,2.566-1.355h.144a2.975,2.975,0,0,1,2.422,1.355,8.866,8.866,0,0,1,.807,2.422v.663c0,.144-.144.26-.26.4l-6.488,4.729a.959.959,0,0,1-.548.259c-.144.173-.144-.086-.144-.231ZM28.873,274.443v-1.211a.928.928,0,0,0-1.067-1.067h-.259c-4.181,0-6.747,3.374-6.747,8.506v16.349a1.374,1.374,0,0,0,.259.952,1.77,1.77,0,0,0,.807.259h1.355a1.012,1.012,0,0,0,.807-.259,1.176,1.176,0,0,0,.259-.952V280.382c-.144-2.97,1.1-4.729,3.258-4.873h.144a1.672,1.672,0,0,0,.807-.259A1.231,1.231,0,0,0,28.873,274.443Zm13.494,1.615a6.757,6.757,0,0,0-6.228-4.181,6.885,6.885,0,0,0-6.343,4.181,30.921,30.921,0,0,0,0,18.107,6.8,6.8,0,0,0,6.343,4.181,6.885,6.885,0,0,0,6.343-4.181,21.828,21.828,0,0,0,1.211-8.909A22.866,22.866,0,0,0,42.367,276.057Zm-3.489,17.588A3.515,3.515,0,0,1,36.168,295a3.56,3.56,0,0,1-2.71-1.355c-.952-1.355-1.5-4.066-1.5-8.506s.4-7.295,1.5-8.506a3.343,3.343,0,0,1,2.71-1.355,3.56,3.56,0,0,1,2.71,1.355c.952,1.211,1.5,4.181,1.5,8.506S39.686,292.435,38.879,293.646Zm54.87-19.2v-1.211c0-.259,0-.663-.259-.807a1.012,1.012,0,0,0-.807-.259H91.067c-.144,0-.26,0-.26-.144a.413.413,0,0,1-.144-.259v-2.97a1.374,1.374,0,0,0-.259-.952,1.77,1.77,0,0,0-.807-.26H88.241a1.012,1.012,0,0,0-.807.26,1.176,1.176,0,0,0-.259.952v28.257a1.375,1.375,0,0,0,.259.952,1.77,1.77,0,0,0,.807.259H89.6A1.012,1.012,0,0,0,90.4,298a1.176,1.176,0,0,0,.259-.952V275.942c0-.144,0-.259.144-.259a.413.413,0,0,1,.26-.144h1.615a2.2,2.2,0,0,0,.807-.259A2.339,2.339,0,0,0,93.748,274.443Zm35.407,15.282h-1.211a.928.928,0,0,0-1.067,1.067,6.325,6.325,0,0,1-.951,2.826,3.28,3.28,0,0,1-2.566,1.355,3.56,3.56,0,0,1-2.71-1.355c-.952-1.355-1.5-4.066-1.5-8.506s.4-7.295,1.5-8.506a3.515,3.515,0,0,1,2.71-1.355,3.075,3.075,0,0,1,2.566,1.355,8.057,8.057,0,0,1,1.1,2.97c.144.548.144.663.259.807a1.606,1.606,0,0,0,.807.144h1.1a1.374,1.374,0,0,0,.951-.259,2.129,2.129,0,0,0,.144-.951,14.957,14.957,0,0,0-.807-3.258,6.736,6.736,0,0,0-9.054-3.518,7.241,7.241,0,0,0-3.662,3.518,30.921,30.921,0,0,0,0,18.107,6.815,6.815,0,0,0,12.571,0,14.955,14.955,0,0,0,.807-3.258,1.149,1.149,0,0,0-.144-.952,1.2,1.2,0,0,0-.836-.231Zm39.473-17.848a6.411,6.411,0,0,0-6.228,4.181,14.955,14.955,0,0,0-.807,3.258,1.149,1.149,0,0,0,.144.952,1.854,1.854,0,0,0,.952.259h1.1a1.374,1.374,0,0,0,.951-.259,1.77,1.77,0,0,0,.26-.807,5.349,5.349,0,0,1,.952-2.826,3.8,3.8,0,0,1,2.826-1.355,3.6,3.6,0,0,1,2.566,1.1,2.774,2.774,0,0,1,.548,1.759,3.341,3.341,0,0,1-1.759,2.97,18.841,18.841,0,0,0-1.9,1.211c-.807.4-2.018,1.211-3.258,2.018-3.921,2.71-4.469,5.421-4.469,7.843a5.826,5.826,0,0,0,2.018,4.729,6.525,6.525,0,0,0,4.585,1.5,7.674,7.674,0,0,0,4.181-1.355l.144-.144a.413.413,0,0,1,.26-.144v.4a1.374,1.374,0,0,0,.259.951,1.77,1.77,0,0,0,.807.259h1.355a.928.928,0,0,0,1.067-1.067V280.152a11.632,11.632,0,0,0-.4-4.325,6.048,6.048,0,0,0-6.142-3.95Zm2.018,22.029a4.213,4.213,0,0,1-2.97,1.211h-.144a2.931,2.931,0,0,1-2.71-1.067,3.119,3.119,0,0,1-.663-2.163,5.884,5.884,0,0,1,2.422-4.729,21,21,0,0,1,3.777-2.422l.663-.4c.26-.144.548-.4.807-.4.144,0,.144.26.144.548l.144,6.228a5.328,5.328,0,0,1-1.47,3.2Zm-63.4-17.848a6.989,6.989,0,0,0-6.228-4.181,6.885,6.885,0,0,0-6.343,4.181,30.921,30.921,0,0,0,0,18.107,6.8,6.8,0,0,0,6.343,4.181,6.885,6.885,0,0,0,6.343-4.181,21.828,21.828,0,0,0,1.211-8.909A22.867,22.867,0,0,0,107.243,276.057Zm-3.489,17.588a3.515,3.515,0,0,1-2.71,1.355,3.56,3.56,0,0,1-2.71-1.355c-.951-1.355-1.5-4.066-1.5-8.506s.4-7.295,1.5-8.506a3.515,3.515,0,0,1,2.71-1.355,3.56,3.56,0,0,1,2.71,1.355c.951,1.211,1.5,4.181,1.5,8.506S104.561,292.435,103.754,293.646ZM180.508,266.6h-1.355a1.012,1.012,0,0,0-.807.259,1.176,1.176,0,0,0-.259.952v29.208a1.374,1.374,0,0,0,.259.952,1.77,1.77,0,0,0,.807.259h1.355a1.012,1.012,0,0,0,.807-.259,1.176,1.176,0,0,0,.26-.952V267.84a1.374,1.374,0,0,0-.26-.952A1.827,1.827,0,0,0,180.508,266.6Zm-95.7,5.565c-4.181,0-6.891,3.374-6.891,8.506v16.349a1.374,1.374,0,0,0,.259.952,1.77,1.77,0,0,0,.807.259h1.355a1.012,1.012,0,0,0,.807-.259,1.176,1.176,0,0,0,.259-.952V280.382c0-2.97,1.211-4.729,3.374-4.988h.144a3.141,3.141,0,0,0,.952-.259,1.77,1.77,0,0,0,.259-.807v-1.1a1.012,1.012,0,0,0-.259-.807A1.08,1.08,0,0,0,84.81,272.165Zm76.091.115a1.77,1.77,0,0,0-.807-.26h-1.355c-.259,0-.663,0-.807.26a2.238,2.238,0,0,0-.259.951l-3.518,17.3-3.777-17.156a3.14,3.14,0,0,0-.26-.952c-.144-.259-.548-.259-.807-.259h-1.355a1.012,1.012,0,0,0-.807.259c-.26.26-.144.548-.144.952l5.277,23.932a1.2,1.2,0,0,0,.4.807,1.77,1.77,0,0,0,.807.259h1.355c.259,0,.548,0,.663-.259a1.2,1.2,0,0,0,.4-.807l5.277-23.932c-.144-.4-.144-.807-.288-1.1Zm-21.625-.4a6.411,6.411,0,0,0-6.228,4.181,14.956,14.956,0,0,0-.807,3.258,1.149,1.149,0,0,0,.144.952,1.854,1.854,0,0,0,.951.259h1.1a1.375,1.375,0,0,0,.952-.259c.259-.144.259-.4.259-.807a5.348,5.348,0,0,1,.952-2.826,3.8,3.8,0,0,1,2.826-1.355,3.6,3.6,0,0,1,2.566,1.1,2.774,2.774,0,0,1,.548,1.759,3.341,3.341,0,0,1-1.759,2.97,16.027,16.027,0,0,0-2.018,1.211,25.037,25.037,0,0,0-3.114,2.018c-3.921,2.71-4.469,5.421-4.469,7.843a5.478,5.478,0,0,0,2.018,4.729,6.663,6.663,0,0,0,4.584,1.5,6.808,6.808,0,0,0,4.181-1.5l.144-.144a.413.413,0,0,1,.259-.144v.4a1.374,1.374,0,0,0,.26.952,1.77,1.77,0,0,0,.807.259h1.355a1.012,1.012,0,0,0,.807-.259,1.176,1.176,0,0,0,.26-.952v-16.9a11.633,11.633,0,0,0-.4-4.325,6.074,6.074,0,0,0-6.17-3.921Zm2.047,22.029a4.825,4.825,0,0,1-2.97,1.1h-.144a2.886,2.886,0,0,1-2.71-1.1,3.119,3.119,0,0,1-.663-2.163,5.884,5.884,0,0,1,2.422-4.729,21,21,0,0,1,3.777-2.422l.663-.4c.259-.144.548-.4.807-.4.144,0,.144.26.144.548l.144,6.228a5.5,5.5,0,0,1-1.47,3.345Z" transform="translate(17.573 -222.166)" fill="#f1f1f1"/>
  </g>
</svg>
