<svg id="User_icon" data-name="User icon" xmlns="http://www.w3.org/2000/svg" width="30" height="30" viewBox="0 0 30 30">
  <path id="Path_38313" data-name="Path 38313" d="M0,0H30V30H0Z" fill="none"/>
  <path id="user-avatar-filled" d="M14.448,2.25a12.2,12.2,0,1,0,12.2,12.2A12.2,12.2,0,0,0,14.448,2.25Zm0,4.357a3.912,3.912,0,1,1-2.776,1.146A3.921,3.921,0,0,1,14.448,6.607Zm6.971,15.614a10.4,10.4,0,0,1-13.941,0v-.5a4.531,4.531,0,0,1,4.357-4.653h5.228a4.539,4.539,0,0,1,4.357,4.627Z" transform="translate(0.552 0.553)" fill="#8f979e"/>
</svg>
